<svg id="svg8" height="512" viewBox="0 0 111 111" width="512" xmlns="http://www.w3.org/2000/svg" xmlns:dc="http://purl.org/dc/elements/1.1/" xmlns:cc="http://creativecommons.org/ns#" xmlns:rdf="http://www.w3.org/1999/02/22-rdf-syntax-ns#" xmlns:svg="http://www.w3.org/2000/svg" xmlns:sodipodi="http://sodipodi.sourceforge.net/DTD/sodipodi-0.dtd" xmlns:inkscape="http://www.inkscape.org/namespaces/inkscape" inkscape:version="1.0 (4035a4fb49, 2020-05-01)" sodipodi:docname="D.svg"><g id="layer1" inkscape:groupmode="layer" inkscape:label="Layer 1"><g id="g1030" transform="translate(210.489 -152.351)"><path id="path903-4-3" d="m-184.31778 154.27383c-6.37153-.00004-11.53673 5.165-11.5369 11.53653v84.08077c-.00005 6.37169 5.16522 11.53697 11.5369 11.53693h30.83286c13.63232 0 24.75415-8.52852 30.8115-18.82546s8.54886-22.545 8.54886-34.75186c0-12.20685-2.49151-24.45611-8.54886-34.75305-6.05735-10.29693-17.17918-18.82386-30.8115-18.82386h-30.749c-.028-.0001-.0559-.0001-.0839 0zm11.53693 23.07345h19.29593c4.91608 0 7.70722 1.98117 10.92406 7.44949 3.21683 5.46832 5.36285 14.24049 5.36285 23.05397s-2.14602 17.58446-5.36285 23.05279c-3.21684 5.46831-6.00798 7.45069-10.92406 7.45069h-19.29593z" fill="#fff79c" sodipodi:nodetypes="ccccssssscccsssssccs" font-variant-ligatures="normal" font-variant-position="normal" font-variant-caps="normal" font-variant-numeric="normal" font-variant-alternates="normal" font-variant-east-asian="normal" font-feature-settings="normal" font-variation-settings="normal" text-indent="0" text-align="start" text-decoration-line="none" text-decoration-style="solid" text-decoration-color="#000000" text-transform="none" text-orientation="mixed" white-space="normal" shape-padding="0" shape-margin="0" inline-size="0" isolation="auto" mix-blend-mode="normal" solid-color="#000000" solid-opacity="1" vector-effect="none"/><path id="path931-8-3" d="m-122.01212 224.27282a3.84561 3.84561 0 0 0 -3.60977 2.38547c-5.0942 12.40985-11.71954 23.10221-24.53078 26.21325a3.84561 3.84561 0 0 0 -2.83012 4.64328 3.84561 3.84561 0 0 0 4.64477 2.83013c16.17701-3.92838 24.42044-17.58341 29.83202-30.76639a3.84561 3.84561 0 0 0 -2.09707-5.01732 3.84561 3.84561 0 0 0 -1.40905-.28842z" fill="#fff36b" font-variant-ligatures="normal" font-variant-position="normal" font-variant-caps="normal" font-variant-numeric="normal" font-variant-alternates="normal" font-variant-east-asian="normal" font-feature-settings="normal" font-variation-settings="normal" text-indent="0" text-align="start" text-decoration-line="none" text-decoration-style="solid" text-decoration-color="#000000" text-transform="none" text-orientation="mixed" white-space="normal" shape-padding="0" shape-margin="0" inline-size="0" isolation="auto" mix-blend-mode="normal" solid-color="#000000" solid-opacity="1" vector-effect="none"/><path id="path935-7-6" d="m-184.32521 152.35089c-7.40719.004-13.45192 6.05151-13.45212 13.45964v84.08065c-.00005 7.41087 6.04877 13.4597 13.45963 13.45965h30.83288c14.43426 0 26.12473-8.98976 32.46836-19.77335 6.27839-10.67268 8.81486-23.25813 8.81486-35.72662 0-12.4685-2.53644-25.05538-8.81486-35.72812-6.34367-10.78366-18.03424-19.77185-32.46836-19.77185h-30.74275c-.0301-.00011-.0601-.00009-.0901 0zm.008 3.84561c.003.00001.005.00001.008 0 .0233-.00008.0458-.00008.0691 0 .003.00001.005.00001.008 0h30.74875c12.83052 0 23.3835 8.06586 29.15453 17.87608 5.83628 9.92114 8.28308 21.83306 8.28308 33.77828 0 11.94521-2.44676 23.85559-8.28308 33.77678-5.77107 9.8103-16.32417 17.87758-29.15453 17.87758h-30.83291c-5.3325.00004-9.61406-4.28151-9.61402-9.61404v-84.08065c.00014-5.33238 4.28165-9.61406 9.61402-9.61403zm11.53683 19.22805c-1.06189.00011-1.9227.86092-1.9228 1.92281v61.007c.00011 1.0619.86091 1.92269 1.9228 1.92281h19.29605c2.71649 0 5.12811-.59517 7.18948-2.01294 2.06138-1.41777 3.71121-3.52969 5.39137-6.38582 3.48295-5.92067 5.62871-14.90195 5.62871-24.02755 0-9.12561-2.1457-18.10826-5.62871-24.02906-1.68019-2.85616-3.33143-4.96685-5.39287-6.38431s-4.47164-2.01294-7.18798-2.01294zm1.92281 3.84561h17.37324c2.19974 0 3.64245.39524 5.00981 1.33545s2.72056 2.5539 4.25721 5.16604c2.95066 5.01583 5.09693 13.57785 5.09693 22.07921 0 8.50135-2.14621 17.06176-5.09693 22.0777-1.53668 2.61221-2.88978 4.22555-4.25721 5.16604-1.36743.9405-2.81022 1.33695-5.00981 1.33695h-17.37324z" sodipodi:nodetypes="scccssssscssccscssssscccccccccsssssssccssssssscc" font-variant-ligatures="normal" font-variant-position="normal" font-variant-caps="normal" font-variant-numeric="normal" font-variant-alternates="normal" font-variant-east-asian="normal" font-feature-settings="normal" font-variation-settings="normal" text-indent="0" text-align="start" text-decoration-line="none" text-decoration-style="solid" text-decoration-color="#000000" text-transform="none" text-orientation="mixed" white-space="normal" shape-padding="0" shape-margin="0" inline-size="0" isolation="auto" mix-blend-mode="normal" solid-color="#000000" solid-opacity="1" vector-effect="none"/><path id="path939-6-8" d="m-189.18781 158.3852a1.922805 1.922805 0 0 0 -1.01548.31546c-1.24882.81952-1.70896 1.82975-2.25929 2.88871-.27517.52948-.51084 1.05799-.69401 1.55777-.18318.49979-.35302.86249-.35302 1.61185v14.31138a1.922805 1.922805 0 0 0 1.9228 1.92281 1.922805 1.922805 0 0 0 1.92281-1.92281v-14.31138c0 .33421.005.0181.11717-.28842.11235-.30653.29214-.71249.49723-1.10711.41016-.78924 1.16964-1.58871.95539-1.44811a1.922805 1.922805 0 0 0 .55281-2.66189 1.922805 1.922805 0 0 0 -1.64641-.86826z" fill="#fff" font-variant-ligatures="normal" font-variant-position="normal" font-variant-caps="normal" font-variant-numeric="normal" font-variant-alternates="normal" font-variant-east-asian="normal" font-feature-settings="normal" font-variation-settings="normal" text-indent="0" text-align="start" text-decoration-line="none" text-decoration-style="solid" text-decoration-color="#000000" text-transform="none" text-orientation="mixed" white-space="normal" shape-padding="0" shape-margin="0" inline-size="0" isolation="auto" mix-blend-mode="normal" solid-color="#000000" solid-opacity="1" vector-effect="none"/></g></g></svg>