<svg id="svg8" height="512" viewBox="0 0 111 111" width="512" xmlns="http://www.w3.org/2000/svg" xmlns:dc="http://purl.org/dc/elements/1.1/" xmlns:cc="http://creativecommons.org/ns#" xmlns:rdf="http://www.w3.org/1999/02/22-rdf-syntax-ns#" xmlns:svg="http://www.w3.org/2000/svg" xmlns:sodipodi="http://sodipodi.sourceforge.net/DTD/sodipodi-0.dtd" xmlns:inkscape="http://www.inkscape.org/namespaces/inkscape" inkscape:version="1.0 (4035a4fb49, 2020-05-01)" sodipodi:docname="G.svg"><g id="layer1" inkscape:groupmode="layer" inkscape:label="Layer 1"><g id="g1167-4-1-7-9" transform="matrix(.769 0 0 .769 -139.668 7.276)"><path id="path1119-9-7-5-6" d="m253.77089-6.9615667c-20.77416 0-38.52699 7.566107-49.73855 20.8126827-11.17592 13.204428-15.6128 30.519436-15.64092 48.67765-.001.05787-.002.11575-.002.17363.00023.06615.0009.132298.002.19844.0322 18.14919 4.47011 35.457 15.64092 48.655434 11.15272 13.17707 28.77947 20.72961 49.413 20.80854.1085.003.21702.004.32555.004.11422-.00003.22844-.001.34263-.004 20.62612-.0831 38.24782-7.63513 49.3975-20.80854 11.17584-13.204454 15.61277-30.522004 15.64089-48.680234.001-.05788.002-.115757.002-.17364-.00022-8.284165-6.71596-14.999671-15.00013-14.999599h-50.07486c-8.28415-.000055-14.99988 6.715445-15.0001 14.999599-.00007 8.284357 6.71574 15.000175 15.0001 15.00012h33.42065c-1.46873 6.03122-3.85053 10.88097-6.88898 14.47095-5.2473 6.19968-12.68473 10.195244-26.8397 10.195244-14.15489 0-21.59297-3.995564-26.84021-10.195244-5.24727-6.19968-8.54056-16.14842-8.54056-29.47107 0-13.322657 3.29329-23.270871 8.54056-29.470551 5.24724-6.199682 12.68532-10.193176 26.84021-10.193176h32.13904c8.28437 0 15.0002-6.71575 15.00013-15.0001177.00007-8.28436809-6.71576-15.000118-15.00013-15.000118z" fill="#ec7523" sodipodi:nodetypes="sscccscccscccccccssssssscss" font-variant-ligatures="normal" font-variant-position="normal" font-variant-caps="normal" font-variant-numeric="normal" font-variant-alternates="normal" font-variant-east-asian="normal" font-feature-settings="normal" font-variation-settings="normal" text-indent="0" text-align="start" text-decoration-line="none" text-decoration-style="solid" text-decoration-color="#000000" text-transform="none" text-orientation="mixed" white-space="normal" shape-padding="0" shape-margin="0" inline-size="0" isolation="auto" mix-blend-mode="normal" solid-color="#000000" solid-opacity="1" vector-effect="none"/><path id="path1153-8-8-4-5" d="m310.98633 78.533203a5 5 0 0 0 -4.80469 3.966797c-4.45806 21.13728-18.14923 34.41067-42.49023 38.82422a5 5 0 0 0 -4.02735 5.8125 5 5 0 0 0 5.81055 4.02734c27.36144-4.96121 45.30698-22.01465 50.49219-46.599607a5 5 0 0 0 -3.86133-5.923828 5 5 0 0 0 -1.11914-.107422z" fill="#ca5d11" font-variant-ligatures="normal" font-variant-position="normal" font-variant-caps="normal" font-variant-numeric="normal" font-variant-alternates="normal" font-variant-east-asian="normal" font-feature-settings="normal" font-variation-settings="normal" text-indent="0" text-align="start" text-decoration-line="none" text-decoration-style="solid" text-decoration-color="#000000" text-transform="none" text-orientation="mixed" white-space="normal" shape-padding="0" shape-margin="0" inline-size="0" isolation="auto" mix-blend-mode="normal" solid-color="#000000" solid-opacity="1" vector-effect="none"/><path id="path1157-9-6-4-2" d="m253.77148-9.4609375c-21.38117-.0000007-39.89744 7.8156559-51.64648 21.6972655-11.65311 13.76823-16.19729 31.701044-16.23242 50.25-.00008.0046.00007.0091 0 .01367-.001.06293-.004.124561-.004.1875-.00004.0078-.00004.01563 0 .02344.00025.07264.003.146121.004.21875.00007.0045-.00008.0091 0 .01367.0393 18.539869 4.58454 36.46642 16.23242 50.228522 11.67846 13.79823 30.04461 21.59819 51.26172 21.6914.005.00011.009-.0001.0137 0 .12204.003.24512.006.36719.006h.004c.12871-.00003.25805-.003.38672-.006.005-.0001.009.00011.0137 0 21.20959-.0975 39.57269-7.8969 51.24804-21.6914 11.6614-13.778151 16.20368-31.728008 16.23242-50.291022.00083-.05454.002-.109517.002-.164062.00001-.0046.00001-.0091 0-.01367-.00026-9.63525-7.86475-17.500084-17.5-17.5h-50.07451c-9.63524-.000064-17.49974 7.864763-17.5 17.5-.00008 9.63547 7.86453 17.500064 17.5 17.5h29.90849c-1.37321 4.170673-3.10036 7.774093-5.28516 10.355469-4.83691 5.714807-11.24712 9.310547-24.93164 9.310547-13.68443 0-20.09485-3.595829-24.93164-9.310547-4.72846-5.586708-7.94922-14.94481-7.94922-27.855469 0-12.910669 3.22071-22.268708 7.94922-27.855469 4.83661-5.714511 11.24697-9.308594 24.93164-9.308594h32.82735c9.63548 0 17.50008-7.864517 17.5-17.4999995.00008-9.635483-7.86452-17.4999997-17.5-17.5zm0 5h32.82735c6.93325 0 12.50006 5.5667468 12.5 12.5.00006 6.9332535-5.56675 12.4999995-12.5 12.4999995h-32.82735c-14.6251 0-23.09212 4.393273-28.75 11.078126-5.76603 6.812598-9.13086 17.351286-9.13086 31.085937 0 13.734641 3.36479 24.273286 9.13086 31.085937 5.6577 6.684638 14.12466 11.080078 28.75 11.080078 14.62543 0 23.09036-4.39552 28.74805-11.080078 3.33952-3.945698 5.86536-9.158567 7.4082-15.49414.3832-1.573665-.80808-3.090804-2.42773-3.091797h-33.42021c-6.93324.000046-12.50005-5.566756-12.5-12.5.00019-6.933071 5.56693-12.500046 12.5-12.5h50.07451c6.93242-.00006 12.49875 5.56589 12.5 12.498047-.0003.04367-.001.08719-.002.130859-.00011.01367-.00011.02735 0 .04102-.0275 17.753446-4.35854 34.437597-15.04882 47.068359-10.6149 12.54157-27.47836 19.84316-47.5 19.92382-.0156-.00015-.0313-.00015-.0469 0-.0932.002-.18801.004-.28125.004-.0904-.00013-.18107-.002-.27148-.004-.0163-.00016-.0325-.00016-.0488 0-20.02894-.0766-36.89581-7.37869-47.51367-19.92382-10.68547-12.624998-15.0193-29.30045-15.05079-47.044922.00009-.01237.00009-.02474 0-.03711-.00079-.04734-.002-.09524-.002-.142578v-.01172c-.00002-.0039.00002-.0078 0-.01172.00031-.04041.001-.08069.002-.121093.0001-.01302.0001-.02604 0-.03906.0275-17.753438 4.36033-34.435554 15.05079-47.066406 10.67408-12.6115418 27.66293-19.9277345 47.83007-19.9277345z" sodipodi:nodetypes="ssssssscsscssscscsccccccssssssscsscscssssssssccccccccsccsccsscsscccssc" font-variant-ligatures="normal" font-variant-position="normal" font-variant-caps="normal" font-variant-numeric="normal" font-variant-alternates="normal" font-variant-east-asian="normal" font-feature-settings="normal" font-variation-settings="normal" text-indent="0" text-align="start" text-decoration-line="none" text-decoration-style="solid" text-decoration-color="#000000" text-transform="none" text-orientation="mixed" white-space="normal" shape-padding="0" shape-margin="0" inline-size="0" isolation="auto" mix-blend-mode="normal" solid-color="#000000" solid-opacity="1" vector-effect="none"/><path id="path1161-6-8-3-3" d="m236.17773-1.3652344a2.5 2.5 0 0 0 -.33593.029297c-10.68511 1.69898755-21.71216 8.7380957-28.69922 16.6953124a2.5 2.5 0 0 0 .22851 3.527344 2.5 2.5 0 0 0 3.52735-.228516c6.19369-7.053684 16.70166-13.6193712 25.72851-15.0546874a2.5 2.5 0 0 0 2.07813-2.8613281 2.5 2.5 0 0 0 -2.52735-2.1074219z" fill="#fff" font-variant-ligatures="normal" font-variant-position="normal" font-variant-caps="normal" font-variant-numeric="normal" font-variant-alternates="normal" font-variant-east-asian="normal" font-feature-settings="normal" font-variation-settings="normal" text-indent="0" text-align="start" text-decoration-line="none" text-decoration-style="solid" text-decoration-color="#000000" text-transform="none" text-orientation="mixed" white-space="normal" shape-padding="0" shape-margin="0" inline-size="0" isolation="auto" mix-blend-mode="normal" solid-color="#000000" solid-opacity="1" vector-effect="none"/></g></g></svg>