<svg id="svg8" height="512" viewBox="0 0 111 111" width="512" xmlns="http://www.w3.org/2000/svg" xmlns:svg="http://www.w3.org/2000/svg"><g id="layer1"><g id="g1013" transform="matrix(.774 0 0 .774 -103.08 10.745)"><path id="path956" d="m187.7132-11.373804a15 15 0 0 0 -15.00012 15.0001174 15 15 0 0 0 15.00012 15.0001186h2.04122v78.320282h-2.04122a15 15 0 0 0 -15.00012 15.000116 15 15 0 0 0 15.00012 14.99961h34.08215a15 15 0 0 0 15.00012-14.99961 15 15 0 0 0 -15.00012-15.000116h-2.04121v-78.320282h2.04121a15 15 0 0 0 15.00012-15.0001186 15 15 0 0 0 -15.00012-15.0001174z" fill="#dc1c4b" font-variant-ligatures="normal" font-variant-position="normal" font-variant-caps="normal" font-variant-numeric="normal" font-variant-alternates="normal" font-variant-east-asian="normal" font-feature-settings="normal" font-variation-settings="normal" text-indent="0" text-align="start" text-decoration-line="none" text-decoration-style="solid" text-decoration-color="#000000" text-transform="none" text-orientation="mixed" white-space="normal" shape-padding="0" shape-margin="0" inline-size="0" isolation="auto" mix-blend-mode="normal" solid-color="#000000" solid-opacity="1" vector-effect="none"/><path id="path999" d="m225.12305 111.69531c-.55782 2.13909-1.87149 4.24916-3.74024 4.26367h-15.26172c-2.76142 0-5 2.23858-5 5s2.23858 5 5 5h15.26172c3.72239 0 7.12351-1.65826 9.3125-3.96289 2.18899-2.30462 3.37429-5.0497 4.08789-7.71289.71542-2.66822-.8685-5.41101-3.53711-6.125-2.68175-.62171-5.5147 1.47468-6.12304 3.53711z" fill="#b1163c" font-variant-ligatures="normal" font-variant-position="normal" font-variant-caps="normal" font-variant-numeric="normal" font-variant-alternates="normal" font-variant-east-asian="normal" font-feature-settings="normal" font-variation-settings="normal" text-indent="0" text-align="start" text-decoration-line="none" text-decoration-style="solid" text-decoration-color="#000000" text-transform="none" text-orientation="mixed" white-space="normal" shape-padding="0" shape-margin="0" inline-size="0" isolation="auto" mix-blend-mode="normal" solid-color="#000000" solid-opacity="1" vector-effect="none"/><path id="path1003" d="m177.6875.42773438c-1.37857.0776337-2.43317 1.25815252-2.35547 2.63671872.14054 2.5110348.89705 5.5390805 2.94922 8.1152349 2.05217 2.576153 5.51925 4.49414 10.10352 4.49414 2.33841 0 3.04998.525317 3.52734 1.164063.47736.638745.78711 1.912229.78711 3.675781v10.246094c0 1.380713 1.11929 2.500003 2.5 2.5 1.38071.000003 2.5-1.119287 2.5-2.5v-10.246094c0-2.244863-.26733-4.64155-1.7832-6.669922-1.51588-2.028372-4.21188-3.169922-7.53125-3.169922-3.3046 0-4.99785-1.1086002-6.19336-2.6093749-1.19552-1.5007746-1.59924-3.6156478-1.86719-5.2792969-.24371-1.5131076-1.3928-2.3811153-2.63672-2.35742182z" fill="#fff" font-variant-ligatures="normal" font-variant-position="normal" font-variant-caps="normal" font-variant-numeric="normal" font-variant-alternates="normal" font-variant-east-asian="normal" font-feature-settings="normal" font-variation-settings="normal" text-indent="0" text-align="start" text-decoration-line="none" text-decoration-style="solid" text-decoration-color="#000000" text-transform="none" text-orientation="mixed" white-space="normal" shape-padding="0" shape-margin="0" inline-size="0" isolation="auto" mix-blend-mode="normal" solid-color="#000000" solid-opacity="1" vector-effect="none"/><path id="path1007" d="m187.71289-13.873047c-9.63548-.000077-17.50008 7.8645214-17.5 17.5000001-.00007 9.4783119 7.62112 17.2024109 17.04102 17.4531249v73.414063c-9.41988.250727-17.04109 7.974819-17.04102 17.453129.00025 9.63525 7.86475 17.50007 17.5 17.5h34.08203c9.63526.00008 17.49975-7.86475 17.5-17.5.00007-9.4784-7.62101-17.202543-17.04101-17.453129v-73.414063c9.42001-.250573 17.04109-7.974722 17.04101-17.4531249.00008-9.6354832-7.86451-17.5000831-17.5-17.5000001zm0 5.0000001h34.08203c6.93326-.0000601 12.50006 5.5667467 12.5 12.5.00006 6.9332529-5.56675 12.5000599-12.5 12.4999999h-2.04101a2.50025 2.50025 0 0 0 -2.5 2.5v78.320313a2.50025 2.50025 0 0 0 2.5 2.5h2.04101c6.93325-.00006 12.50005 5.566744 12.5 12.500004-.00018 6.93308-5.56691 12.50006-12.5 12.5h-34.08203c-6.93308.00005-12.49982-5.56692-12.5-12.5-.00005-6.93325 5.56675-12.50006 12.5-12.500004h2.04102a2.50025 2.50025 0 0 0 2.5-2.5v-78.320313a2.50025 2.50025 0 0 0 -2.5-2.5h-2.04102c-6.93325.000056-12.50005-5.56675-12.5-12.4999999-.00005-6.93325 5.56675-12.5000554 12.5-12.5z" fill="#050505" font-variant-ligatures="normal" font-variant-position="normal" font-variant-caps="normal" font-variant-numeric="normal" font-variant-alternates="normal" font-variant-east-asian="normal" font-feature-settings="normal" font-variation-settings="normal" text-indent="0" text-align="start" text-decoration-line="none" text-decoration-style="solid" text-decoration-color="#000000" text-transform="none" text-orientation="mixed" white-space="normal" shape-padding="0" shape-margin="0" inline-size="0" isolation="auto" mix-blend-mode="normal" solid-color="#000000" solid-opacity="1" vector-effect="none"/></g></g></svg>