<svg id="svg8" height="512" viewBox="0 0 111 111" width="512" xmlns="http://www.w3.org/2000/svg" xmlns:svg="http://www.w3.org/2000/svg"><g id="layer1"><g id="g1036" transform="matrix(.774 0 0 .774 -221.463 -125.538)"><path id="path944" d="m1147.293 633.95117c-9.5626 8.08239-16.2791 17.49458-19.6582 28.77149l-.01.0293c-1.5909 5.39894-2.369 11.00469-2.3086 16.63282v408.78712c-.0002 31.3102 25.3812 56.6925 56.6914 56.6933 31.3109.0002 56.6935-25.3824 56.6933-56.6933v-252.08987l238.7991 288.26177c20.6727 21.3644 44.3425 26.1301 68.3204 14.8747 19.1431-8.9859 32.0371-25.6142 32.0371-51.0488v-409.39822c-.0008-31.31019-25.3831-56.69161-56.6933-56.6914-31.3102-.00027-56.6926 25.38117-56.6934 56.6914v252.10157l-238.422-287.80469c-23.2445-27.03752-61.5476-21.79393-78.7554-9.11715z" fill="#b557a1" transform="scale(.265)" font-variant-ligatures="normal" font-variant-position="normal" font-variant-caps="normal" font-variant-numeric="normal" font-variant-alternates="normal" font-variant-east-asian="normal" font-feature-settings="normal" font-variation-settings="normal" text-indent="0" text-align="start" text-decoration-line="none" text-decoration-style="solid" text-decoration-color="#000000" text-transform="none" text-orientation="mixed" white-space="normal" shape-padding="0" shape-margin="0" inline-size="0" isolation="auto" mix-blend-mode="normal" solid-color="#000000" solid-opacity="1" vector-effect="none"/><path id="path1017" d="m304.98633 170.11914c-2.2809 2.29459-4.28711 5.45565-4.28711 9.75391v23.95898c0 1.38071 1.11929 2.5 2.5 2.5s2.5-1.11929 2.5-2.5v-23.95898c0-2.89993 1.01298-4.39855 2.83203-6.22852.97336-.97896.96899-2.56158-.01-3.53515-1.06422-.94704-2.60886-.89593-3.53515.01z" fill="#fff" font-variant-ligatures="normal" font-variant-position="normal" font-variant-caps="normal" font-variant-numeric="normal" font-variant-alternates="normal" font-variant-east-asian="normal" font-feature-settings="normal" font-variation-settings="normal" text-indent="0" text-align="start" text-decoration-line="none" text-decoration-style="solid" text-decoration-color="#000000" text-transform="none" text-orientation="mixed" white-space="normal" shape-padding="0" shape-margin="0" inline-size="0" isolation="auto" mix-blend-mode="normal" solid-color="#000000" solid-opacity="1" vector-effect="none"/><path id="path1021" d="m394.49805 170.11914c-2.2809 2.29459-4.28711 5.45565-4.28711 9.75391v23.95898c0 1.38071 1.11929 2.5 2.5 2.5s2.5-1.11929 2.5-2.5v-23.95898c0-2.89993 1.01298-4.39855 2.83203-6.22852.97336-.97896.96899-2.56158-.01-3.53515-1.06422-.94704-2.60886-.89593-3.53515.01z" fill="#fff" font-variant-ligatures="normal" font-variant-position="normal" font-variant-caps="normal" font-variant-numeric="normal" font-variant-alternates="normal" font-variant-east-asian="normal" font-feature-settings="normal" font-variation-settings="normal" text-indent="0" text-align="start" text-decoration-line="none" text-decoration-style="solid" text-decoration-color="#000000" text-transform="none" text-orientation="mixed" white-space="normal" shape-padding="0" shape-margin="0" inline-size="0" isolation="auto" mix-blend-mode="normal" solid-color="#000000" solid-opacity="1" vector-effect="none"/><path id="path1025" d="m372.7832 266.54688c-2.13353 1.75291-2.44219 4.90344-.68945 7.0371l17.23242 20.97852c.0244.0296.0491.0589.0742.0879 3.09066 3.59295 7.03864 5.80785 11.12891 6.22461 4.09026.41676 8.12117-.99381 11.1875-3.5957 2.10539-1.7864 2.36421-4.94123.57812-7.04688-1.78656-2.10666-4.94289-2.36553-7.04883-.57812-1.22914 1.04297-2.42883 1.40132-3.70312 1.27148-1.27291-.1297-2.81958-.7761-4.55664-2.79297-.002-.002-.004-.002-.006-.004l-17.16016-20.89258c-2.09623-2.07216-4.88055-2.41439-7.03711-.68945z" fill="#984386" font-variant-ligatures="normal" font-variant-position="normal" font-variant-caps="normal" font-variant-numeric="normal" font-variant-alternates="normal" font-variant-east-asian="normal" font-feature-settings="normal" font-variation-settings="normal" text-indent="0" text-align="start" text-decoration-line="none" text-decoration-style="solid" text-decoration-color="#000000" text-transform="none" text-orientation="mixed" white-space="normal" shape-padding="0" shape-margin="0" inline-size="0" isolation="auto" mix-blend-mode="normal" solid-color="#000000" solid-opacity="1" vector-effect="none"/><path id="path1029" d="m402.47461 162.0918c-9.63525-.00008-17.49976 7.86475-17.5 17.5v59.76562l-58.65625-70.80664c-.01-.0118-.0194-.0235-.0293-.0352-3.56967-4.15217-8.39888-5.86892-12.83203-6.01562-4.24047-.14032-8.1404 1.0324-10.97461 2.97461-.14427.0687-.28161.15114-.41015.24609-.0448.033-.0884.0676-.13086.10352-2.81969 2.38321-4.93652 5.31171-5.98243 8.80078-.002.007-.004.0143-.006.0215-.49108 1.66651-.73153 3.39747-.71289 5.13477v108.13086c-.00005 9.63523 7.86476 17.49976 17.5 17.5 9.63546.00006 17.50007-7.86454 17.5-17.5v-59.76172l58.75586 70.92773c.0411.0492.0841.0967.12891.14258 6.0036 6.20447 13.77279 7.82318 20.93555 4.46094 5.74794-2.69813 9.91406-8.19505 9.91406-15.76953v-108.32029c-.00024-9.63524-7.86477-17.50006-17.5-17.5zm0 5c6.93307-.00004 12.49982 5.56693 12.5 12.5v108.32031c0 5.88466-2.65713 9.18528-7.03906 11.24219-5.51473 2.58865-10.26216 1.6877-15.1875-3.38672l-63.08399-76.14844c-1.49418-1.79949-4.42059-.74521-4.42383 1.59375v66.69922c.00005 6.93322-5.56677 12.50004-12.5 12.5-6.93307-.00018-12.50004-5.56693-12.5-12.5v-108.1582c.00005-.009.00005-.0182 0-.0273-.0133-1.23962.15779-2.47292.50782-3.66211.00018-.00062-.00019-.001 0-.002.73308-2.44647 2.15746-4.4722 4.34961-6.3457 1.70768-1.23598 4.91418-2.32733 8.19531-2.21875 3.30978.10952 6.62269 1.27583 9.20312 4.27734l63.05274 76.11328c1.49431 1.80413 4.42657.74692 4.42578-1.5957v-66.70117c.00018-6.93307 5.56693-12.50006 12.5-12.5z" font-variant-ligatures="normal" font-variant-position="normal" font-variant-caps="normal" font-variant-numeric="normal" font-variant-alternates="normal" font-variant-east-asian="normal" font-feature-settings="normal" font-variation-settings="normal" text-indent="0" text-align="start" text-decoration-line="none" text-decoration-style="solid" text-decoration-color="#000000" text-transform="none" text-orientation="mixed" white-space="normal" shape-padding="0" shape-margin="0" inline-size="0" isolation="auto" mix-blend-mode="normal" solid-color="#000000" solid-opacity="1" vector-effect="none"/></g></g></svg>