<svg id="svg8" height="512" viewBox="0 0 111 111" width="512" xmlns="http://www.w3.org/2000/svg" xmlns:svg="http://www.w3.org/2000/svg"><g id="layer1"><g id="g1334" transform="matrix(.776 0 0 .776 -123.927 -120.409)"><path id="path968-9" d="m231.32014 157.74162c-20.91126 0-40.54461 8.67176-51.74982 21.92218-11.75803 13.22574-17.30074 30.27589-17.30074 47.12064 0 16.84473 5.54271 33.89541 17.30074 47.12115 14.39529 15.76593 33.77533 21.92424 51.74982 21.92424 21.96767-.0193 40.88987-9.55548 51.75033-21.92424 11.75803-13.22574 17.30283-30.27642 17.30283-47.12115 0-16.84475-5.5448-33.8949-17.30283-47.12064-14.96864-15.9621-33.70678-21.92218-51.75033-21.92218zm0 30.00023c14.2679 0 23.06916 4.8145 29.32843 11.85509 6.2593 7.0406 9.7245 17.01044 9.7245 27.1875 0 10.17704-3.4652 20.14895-9.7245 27.18955-6.25927 7.04059-15.06053 11.85561-29.32843 11.85561-14.26789 0-23.06865-4.81502-29.32792-11.85561-6.25928-7.0406-9.72294-17.01251-9.72294-27.18955 0-10.17706 3.46366-20.1469 9.72294-27.1875 6.25927-7.04059 15.06003-11.85509 29.32792-11.85509z" fill="#5e79bc" font-variant-ligatures="normal" font-variant-position="normal" font-variant-caps="normal" font-variant-numeric="normal" font-variant-alternates="normal" font-variant-east-asian="normal" font-feature-settings="normal" font-variation-settings="normal" text-indent="0" text-align="start" text-decoration-line="none" text-decoration-style="solid" text-decoration-color="#000000" text-transform="none" text-orientation="mixed" white-space="normal" shape-padding="0" shape-margin="0" inline-size="0" isolation="auto" mix-blend-mode="normal" solid-color="#000000" solid-opacity="1" vector-effect="none"/><path id="path1304" d="m287.80041 249.92764a5 5 0 0 0 -4.52734 2.77735c-6.63639 13.36796-16.17897 22.0047-30.13477 27.11328a5 5 0 0 0 -2.97656 6.41406 5 5 0 0 0 6.41406 2.97656c16.08714-5.88876 28.03796-16.71665 35.6543-32.05859a5 5 0 0 0 -2.25391-6.70117 5 5 0 0 0 -2.17578-.52149z" fill="#435fa2" font-variant-ligatures="normal" font-variant-position="normal" font-variant-caps="normal" font-variant-numeric="normal" font-variant-alternates="normal" font-variant-east-asian="normal" font-feature-settings="normal" font-variation-settings="normal" text-indent="0" text-align="start" text-decoration-line="none" text-decoration-style="solid" text-decoration-color="#000000" text-transform="none" text-orientation="mixed" white-space="normal" shape-padding="0" shape-margin="0" inline-size="0" isolation="auto" mix-blend-mode="normal" solid-color="#000000" solid-opacity="1" vector-effect="none"/><path id="path1308" d="m231.31994 155.2421c-21.59109 0-41.84829 8.85857-53.63867 22.78515-12.19239 13.72796-17.91211 31.37524-17.91211 48.75782 0 17.39314 5.72587 35.04968 17.93359 48.78125a2.500245 2.500245 0 0 0 .0215.0254c14.93006 16.35162 35.05019 22.73828 53.5957 22.73828a2.500245 2.500245 0 0 0 .002 0c22.68339-.0199 42.22574-9.79735 53.61719-22.76367l.008-.01c12.20186-13.73011 17.92578-31.38212 17.92578-48.77148 0-17.39337-5.72599-35.05178-17.93359-48.78321a2.500245 2.500245 0 0 0 -.0449-.0488c-15.46835-16.49497-34.98014-22.71093-53.57422-22.71093zm0 5c17.48324 0 35.4376 5.69769 49.90234 21.10742 11.2938 12.71671 16.65039 29.14972 16.65039 45.43555 0 16.29611-5.36148 32.73895-16.66992 45.45898a2.500245 2.500245 0 0 0 -.0117.0117c-10.33056 11.76527-28.6265 21.05498-49.87109 21.07422-17.39392 0-36.02271-5.92418-49.88086-21.08594l-.002-.002c-11.30708-12.71963-16.66797-29.1616-16.66797-45.45703 0-16.29634 5.36156-32.741 16.66992-45.46094a2.500245 2.500245 0 0 0 .041-.0469c10.62274-12.56163 29.61973-21.03515 49.83984-21.03515zm0 25c-14.83028 0-24.53891 5.20607-31.19531 12.69336-6.73365 7.57418-10.35547 18.10531-10.35547 28.84961 0 10.74427 3.62166 21.27524 10.35547 28.8496 6.65635 7.48725 16.36497 12.69532 31.19531 12.69532 14.83035 0 24.54086-5.20802 31.19727-12.69532 6.73369-7.57421 10.35546-18.10508 10.35546-28.8496 0-10.74455-3.62193-21.27558-10.35546-28.84961-6.65645-7.48734-16.36698-12.69336-31.19727-12.69336zm0 5c13.70551 0 21.59884 4.42178 27.46094 11.01562 5.78506 6.50717 9.09179 15.91777 9.09179 25.52735 0 9.60955-3.30689 19.02035-9.09179 25.52734-5.86214 6.59389-13.75549 11.01758-27.46094 11.01758-13.70544 0-21.5968-4.42364-27.45898-11.01758-5.78475-6.50684-9.0918-15.91754-9.0918-25.52734 0-9.60983 3.30688-19.02033 9.0918-25.52735 5.86214-6.59389 13.75348-11.01562 27.45898-11.01562z" font-variant-ligatures="normal" font-variant-position="normal" font-variant-caps="normal" font-variant-numeric="normal" font-variant-alternates="normal" font-variant-east-asian="normal" font-feature-settings="normal" font-variation-settings="normal" text-indent="0" text-align="start" text-decoration-line="none" text-decoration-style="solid" text-decoration-color="#000000" text-transform="none" text-orientation="mixed" white-space="normal" shape-padding="0" shape-margin="0" inline-size="0" isolation="auto" mix-blend-mode="normal" solid-color="#000000" solid-opacity="1" vector-effect="none"/><path id="path1312" d="m208.28478 164.19717a2.499995 2.499995 0 0 0 -.7207.13477c-15.65858 5.40035-27.19851 15.46657-34.84766 30.17383a2.499995 2.499995 0 0 0 1.06446 3.37109 2.499995 2.499995 0 0 0 3.37109-1.06445c7.1407-13.72966 17.45721-22.72355 32.04297-27.75391a2.499995 2.499995 0 0 0 1.54687-3.17773 2.499995 2.499995 0 0 0 -2.45703-1.6836z" fill="#fff" font-variant-ligatures="normal" font-variant-position="normal" font-variant-caps="normal" font-variant-numeric="normal" font-variant-alternates="normal" font-variant-east-asian="normal" font-feature-settings="normal" font-variation-settings="normal" text-indent="0" text-align="start" text-decoration-line="none" text-decoration-style="solid" text-decoration-color="#000000" text-transform="none" text-orientation="mixed" white-space="normal" shape-padding="0" shape-margin="0" inline-size="0" isolation="auto" mix-blend-mode="normal" solid-color="#000000" solid-opacity="1" vector-effect="none"/></g></g></svg>