<svg id="svg8" height="512" viewBox="0 0 111 111" width="512" xmlns="http://www.w3.org/2000/svg" xmlns:svg="http://www.w3.org/2000/svg"><g id="layer1"><g id="g1260" transform="matrix(.769 0 0 .769 -314.859 -112.992)"><path id="path1145-9" d="m453.18405 149.4141c-8.28397.00022-14.99939 6.71564-14.9996 14.9996v54.48504c-.003.12574-.003.2515 0 .37724v54.45817c-.00005 8.28416 6.71544 14.9999 14.9996 15.00012 8.28437.00007 15.00018-6.71575 15.00013-15.00012v-39.35677l.0584.001 26.59372 46.29898c4.12632 7.1839 13.29522 9.66231 20.47886 5.53558 7.1837-4.12649 9.66187-13.29533 5.53505-20.47885l-20.58427-35.83351c15.25482-7.47255 24.63519-22.76577 24.63519-37.89278 0-21.13393-18.30707-42.59378-45.36725-42.59378-8.78327 0-17.56656 0-26.34983 0zm15.00013 29.99972h11.3497c13.42967 0 15.367 6.13311 15.367 12.59406 0 6.45186-1.93786 12.57425-15.31636 12.59148l-11.40034-.22841z" fill="#2276bc" font-variant-ligatures="normal" font-variant-position="normal" font-variant-caps="normal" font-variant-numeric="normal" font-variant-alternates="normal" font-variant-east-asian="normal" font-feature-settings="normal" font-variation-settings="normal" text-indent="0" text-align="start" text-decoration-line="none" text-decoration-style="solid" text-decoration-color="#000000" text-transform="none" text-orientation="mixed" white-space="normal" shape-padding="0" shape-margin="0" inline-size="0" isolation="auto" mix-blend-mode="normal" solid-color="#000000" solid-opacity="1" vector-effect="none"/><path id="path1042-2" d="m446.1646 155.17944a2.499995 2.499995 0 0 0 -1.93555.88476c-1.67537 1.98121-3.23633 4.54969-3.23633 7.85157v23.49804a2.499995 2.499995 0 0 0 2.5 2.5 2.499995 2.499995 0 0 0 2.5-2.5v-23.49804c0-1.83619.69764-3.01827 2.05469-4.62305a2.499995 2.499995 0 0 0 -.29492-3.52344 2.499995 2.499995 0 0 0 -1.58789-.58984z" fill="#fff" font-variant-ligatures="normal" font-variant-position="normal" font-variant-caps="normal" font-variant-numeric="normal" font-variant-alternates="normal" font-variant-east-asian="normal" font-feature-settings="normal" font-variation-settings="normal" text-indent="0" text-align="start" text-decoration-line="none" text-decoration-style="solid" text-decoration-color="#000000" text-transform="none" text-orientation="mixed" white-space="normal" shape-padding="0" shape-margin="0" inline-size="0" isolation="auto" mix-blend-mode="normal" solid-color="#000000" solid-opacity="1" vector-effect="none"/><path id="path1250" d="m491.42188 256.15234a5 5 0 0 0 -2.4629.69727 5 5 0 0 0 -1.7539 6.84961l9.17773 15.49219-.0273-.0488c3.61534 6.26193 11.06733 7.95817 16.77539 6.16797a5 5 0 0 0 3.27344-6.26758 5 5 0 0 0 -6.26563-3.27344c-2.23304.70034-3.8997.49194-5.12305-1.62695a5.0005 5.0005 0 0 0 -.0293-.0488l-9.17774-15.49023a5 5 0 0 0 -4.38671-2.45118z" fill="#1b5c92" font-variant-ligatures="normal" font-variant-position="normal" font-variant-caps="normal" font-variant-numeric="normal" font-variant-alternates="normal" font-variant-east-asian="normal" font-feature-settings="normal" font-variation-settings="normal" text-indent="0" text-align="start" text-decoration-line="none" text-decoration-style="solid" text-decoration-color="#000000" text-transform="none" text-orientation="mixed" white-space="normal" shape-padding="0" shape-margin="0" inline-size="0" isolation="auto" mix-blend-mode="normal" solid-color="#000000" solid-opacity="1" vector-effect="none"/><path id="path1254" d="m453.18359 146.91406a2.500245 2.500245 0 0 0 -.49414.0508c-9.40286.26977-17.00562 7.98342-17.00586 17.44922v54.48438l.002-.0586c-.004.16548-.004.33062 0 .4961l-.002-.0606v54.45899c-.00005 9.63523 7.86476 17.49974 17.5 17.5 9.63548.00008 17.50006-7.86453 17.5-17.5v-30.0879l21.98438 38.2754c4.79929 8.35553 15.53734 11.25875 23.89258 6.45898 8.3553-4.79949 11.2569-15.53749 6.45703-23.89258l-19.3457-33.67773c14.69584-8.25408 23.72851-23.45354 23.72851-38.80274 0-22.57766-19.48527-45.09375-47.86719-45.09375zm2.5 2.57032v2.42968h23.84961c25.73845 0 42.86719 20.40355 42.86719 40.09375 0 14.09349-8.82609 28.59057-23.23437 35.64844a2.500245 2.500245 0 0 0 -1.06836 3.49023l20.58398 35.83204c3.45377 6.01195 1.40077 13.61291-4.61133 17.0664-6.01204 3.45369-13.61305 1.39899-17.0664-4.61328l-26.59375-46.29883a2.500245 2.500245 0 0 0 -2.125-1.2539l-.0586-.002a2.500245 2.500245 0 0 0 -2.54297 2.5v39.35743c.00005 6.93326-5.56674 12.50005-12.5 12.5-6.93307-.00019-12.50004-5.56692-12.5-12.5v-54.45899a2.500245 2.500245 0 0 0 0-.0586c-.002-.086-.002-.17181 0-.25782a2.500245 2.500245 0 0 0 0-.0605v-54.48438c.00018-6.93291 5.56708-12.49981 12.5-12.5a2.500245 2.500245 0 0 0 2.5-2.42968zm12.5 27.42968a2.500245 2.500245 0 0 0 -2.5 2.5v24.95703a2.500245 2.500245 0 0 0 2.45118 2.5l11.40039.22852a2.500245 2.500245 0 0 0 .0527 0c7.07045-.009 11.72285-1.66482 14.50977-4.6875 2.78691-3.02268 3.30273-6.92807 3.30273-10.4043 0-3.48035-.51545-7.39109-3.31055-10.41601-2.79509-3.02492-7.46123-4.67774-14.55664-4.67774zm2.5 5h8.84961c6.33427 0 9.35378 1.41344 10.88477 3.07032 1.53099 1.65687 1.98242 4.04283 1.98242 7.02343 0 2.97564-.45188 5.35789-1.97851 7.01367-1.52539 1.65443-4.52875 3.0677-10.82618 3.07813l-8.91211-.17969z" font-variant-ligatures="normal" font-variant-position="normal" font-variant-caps="normal" font-variant-numeric="normal" font-variant-alternates="normal" font-variant-east-asian="normal" font-feature-settings="normal" font-variation-settings="normal" text-indent="0" text-align="start" text-decoration-line="none" text-decoration-style="solid" text-decoration-color="#000000" text-transform="none" text-orientation="mixed" white-space="normal" shape-padding="0" shape-margin="0" inline-size="0" isolation="auto" mix-blend-mode="normal" solid-color="#000000" solid-opacity="1" vector-effect="none"/></g></g></svg>