<svg id="svg8" height="512" viewBox="0 0 111 111" width="512" xmlns="http://www.w3.org/2000/svg" xmlns:svg="http://www.w3.org/2000/svg"><g id="layer1"><g id="g1099"><path id="path1030" d="m20.270549 1.9625031a11.777963 11.777963 0 0 0 -11.7779629 11.7779629v48.288115a11.779141 11.779141 0 0 0 0 .03987c.049781 14.63926 6.0255749 27.102335 15.0598369 35.119186 9.034271 8.016853 20.600977 11.806323 32.025939 11.848503 11.424961.0422 23.033164-3.67119 32.067349-11.715082 9.034184-8.043891 14.913799-20.597157 14.862009-35.333888v-48.246704a11.777963 11.777963 0 0 0 -11.777965-11.7779629 11.777963 11.777963 0 0 0 -11.777963 11.7779629v48.288115a11.779141 11.779141 0 0 0 0 .0414c.03117 8.879886-2.83516 13.97464-6.971691 17.657743-4.136538 3.683103-10.123598 5.776886-16.314323 5.754026s-12.260766-2.17085-16.478415-5.913519-7.109218-8.862373-7.138851-17.57953v-48.248235a11.777963 11.777963 0 0 0 -11.777963-11.7779629z" fill="#1f8b95" font-variant-ligatures="normal" font-variant-position="normal" font-variant-caps="normal" font-variant-numeric="normal" font-variant-alternates="normal" font-variant-east-asian="normal" font-feature-settings="normal" font-variation-settings="normal" text-indent="0" text-align="start" text-decoration-line="none" text-decoration-style="solid" text-decoration-color="#000000" text-transform="none" text-orientation="mixed" white-space="normal" shape-padding="0" shape-margin="0" inline-size="0" isolation="auto" mix-blend-mode="normal" solid-color="#000000" solid-opacity="1" vector-effect="none"/><path id="path985-8" d="m14.027797 6.1933209c-1.686659 1.7885619-3.444442 4.3375641-3.444442 8.6709131v13.95259c0 1.08413.878864 1.962994 1.962994 1.962994s1.962994-.878864 1.962994-1.962994v-13.95259c0-3.449609.871561-4.384724 2.373997-5.9779293.743402-.7886367.707016-2.0305126-.08128-2.7742674-.841355-.7262763-2.07746-.6349108-2.77426.081284z" fill="#fff" font-variant-ligatures="normal" font-variant-position="normal" font-variant-caps="normal" font-variant-numeric="normal" font-variant-alternates="normal" font-variant-east-asian="normal" font-feature-settings="normal" font-variation-settings="normal" text-indent="0" text-align="start" text-decoration-line="none" text-decoration-style="solid" text-decoration-color="#000000" text-transform="none" text-orientation="mixed" white-space="normal" shape-padding="0" shape-margin="0" inline-size="0" isolation="auto" mix-blend-mode="normal" solid-color="#000000" solid-opacity="1" vector-effect="none"/><path id="path989-3" d="m90.126393 77.67852c-3.484604 8.398937-10.793333 16.709591-23.523725 20.120686-2.093996.56133-3.336657 2.713684-2.775791 4.807804.561307 2.09476 2.714719 3.33764 4.809335 2.77579 15.124765-4.05266 24.444707-14.336364 28.742525-24.69538.830213-2.002677-.119986-4.299223-2.122491-5.129852-2.039621-.809578-4.413038.497399-5.129853 2.120952z" fill="#16626a" font-variant-ligatures="normal" font-variant-position="normal" font-variant-caps="normal" font-variant-numeric="normal" font-variant-alternates="normal" font-variant-east-asian="normal" font-feature-settings="normal" font-variation-settings="normal" text-indent="0" text-align="start" text-decoration-line="none" text-decoration-style="solid" text-decoration-color="#000000" text-transform="none" text-orientation="mixed" white-space="normal" shape-padding="0" shape-margin="0" inline-size="0" isolation="auto" mix-blend-mode="normal" solid-color="#000000" solid-opacity="1" vector-effect="none"/><path id="path1083" d="m20.270227.00000002c-7.565669 0-13.7409566 6.17528728-13.7409566 13.74095698v48.288114c-.0000236.01447-.0000236.02847 0 .04294a1.9631901 1.9631901 0 0 0 0 .0031c.051587 15.169663 6.2525356 28.1787 15.7208166 36.580702 9.426736 8.365127 21.46617 12.300087 33.320289 12.343857 11.855203.0437 23.946279-3.81224 33.380098-12.211968 9.475803-8.43711 15.573556-21.544909 15.519916-36.807674v-48.239071c0-7.5656697-6.175281-13.74095698-13.740957-13.74095698-7.565669 0-13.740957 6.17528728-13.740957 13.74095698v48.288114c-.000016.01459-.000024.02989 0 .04447a1.9631901 1.9631901 0 0 0 0 .0031c.02968 8.454837-2.512357 12.800769-6.313781 16.185498-3.709917 3.303247-9.258115 5.278349-15.001568 5.257143-5.741404-.021227-11.385356-2.050195-15.182532-5.419738-3.884734-3.447245-6.449511-7.830207-6.479411-16.110351v-48.248236c0-7.5656697-6.175288-13.74095698-13.740957-13.74095698zm0 3.92598768c5.443908 0 9.814969 4.3710607 9.814969 9.8149693v48.248241a1.9631901 1.9631901 0 0 0 0 .0061c.03109 9.148631 3.2506 15.00413 7.799831 19.04104 4.63813 4.115793 11.132719 6.384361 17.772765 6.408869 6.637997.02451 13.063912-2.187952 17.627072-6.250909 4.471096-3.980997 7.661494-9.825461 7.6296-19.128455v-.0031c-.000016-.01046-.000016-.02022 0-.03067a1.9631901 1.9631901 0 0 0 0-.0031v-48.288016c0-5.4439086 4.371061-9.8149693 9.814969-9.8149693s9.814967 4.3710607 9.814967 9.8149693v48.246708a1.9631901 1.9631901 0 0 0 0 .0061c.04994 14.210721-5.61153 26.210986-14.204096 33.861669-8.63455 7.688066-19.759872 11.258786-30.754593 11.218206-10.995804-.0406-22.08825-3.68611-30.730056-11.354697-8.599287-7.630862-14.351165-19.546262-14.400397-33.653075v-.0046c-.000016-.0096-.000016-.01958 0-.02914a1.9631901 1.9631901 0 0 0 0-.0031v-48.288071c0-5.4439086 4.371061-9.8149693 9.814969-9.8149693z" font-variant-ligatures="normal" font-variant-position="normal" font-variant-caps="normal" font-variant-numeric="normal" font-variant-alternates="normal" font-variant-east-asian="normal" font-feature-settings="normal" font-variation-settings="normal" text-indent="0" text-align="start" text-decoration-line="none" text-decoration-style="solid" text-decoration-color="#000000" text-transform="none" text-orientation="mixed" white-space="normal" shape-padding="0" shape-margin="0" inline-size="0" isolation="auto" mix-blend-mode="normal" solid-color="#000000" solid-opacity="1" vector-effect="none"/></g></g></svg>