<svg id="svg8" height="512" viewBox="0 0 111 111" width="512" xmlns="http://www.w3.org/2000/svg" xmlns:svg="http://www.w3.org/2000/svg"><g id="layer1"><g id="g878" transform="matrix(.765 0 0 .765 -215.39 17.714)"><path id="path971" d="m314.27842-20.655365c-8.28416.000221-14.99965 6.715957-14.9996 15.0001176v54.9397984c-.00013.03635-.00013.07269 0 .109037v54.939802c-.00013.0363-.00013.0727 0 .10904-.00005 8.28416 6.71544 14.99989 14.9996 15.00011h57.22855c11.45366 0 21.74034-5.83354 28.04531-13.77745 6.30496-7.943914 9.38445-17.798342 9.38445-27.996225 0-10.392814-2.92902-20.442726-9.11109-28.69334-2.22308-2.966937-4.99297-5.682945-8.1721-7.94835 2.46216-5.742286 3.67575-12.006855 3.67575-18.407147 0-10.392813-2.92902-20.4427242-9.11109-28.6933377-6.18204-8.2506133-16.57545-14.5820553-28.31867-14.5820553zm15.0001 30.0002351h28.62101c1.85399 0 2.67732.390284 4.31083 2.5703859 1.63351 2.180103 3.1192 6.267975 3.1192 10.704772 0 3.893656-1.35964 7.426298-2.88303 9.345684-1.52337 1.919383-2.45454 2.427758-4.547 2.427758h-28.62101zm0 55.0488359h42.22845c1.85399 0 2.67732.390282 4.31083 2.570385 1.63354 2.180103 3.1192 6.267976 3.1192 10.704774 0 3.893654-1.35964 7.426299-2.88303 9.345681-1.52339 1.919383-2.45454 2.427759-4.547 2.427759h-42.22845z" fill="#ef937e" font-variant-ligatures="normal" font-variant-position="normal" font-variant-caps="normal" font-variant-numeric="normal" font-variant-alternates="normal" font-variant-east-asian="normal" font-feature-settings="normal" font-variation-settings="normal" text-indent="0" text-align="start" text-decoration-line="none" text-decoration-style="solid" text-decoration-color="#000000" text-transform="none" text-orientation="mixed" white-space="normal" shape-padding="0" shape-margin="0" inline-size="0" isolation="auto" mix-blend-mode="normal" solid-color="#000000" solid-opacity="1" vector-effect="none"/><path id="path859" d="m391.79688 14.351562a5 5 0 0 0 -.14454.002 5 5 0 0 0 -4.82617 5.169922c.14806 4.304442-.34969 9.403908-1.94922 13.59375a5 5 0 0 0 2.88867 6.453124 5 5 0 0 0 6.45313-2.886718c2.2808-5.974383 2.78286-12.233263 2.60156-17.503906a5 5 0 0 0 -5.02343-4.828126z" fill="#ea6e52" font-variant-ligatures="normal" font-variant-position="normal" font-variant-caps="normal" font-variant-numeric="normal" font-variant-alternates="normal" font-variant-east-asian="normal" font-feature-settings="normal" font-variation-settings="normal" text-indent="0" text-align="start" text-decoration-line="none" text-decoration-style="solid" text-decoration-color="#000000" text-transform="none" text-orientation="mixed" white-space="normal" shape-padding="0" shape-margin="0" inline-size="0" isolation="auto" mix-blend-mode="normal" solid-color="#000000" solid-opacity="1" vector-effect="none"/><path id="path863" d="m403.57031 71.960938a5 5 0 0 0 -4.87695 4.537109c-1.53971 16.595825-13.40012 30.634923-26.08594 32.761723a5 5 0 0 0 -4.10547 5.75781 5 5 0 0 0 5.75782 4.10351c18.37796-3.08108 32.47413-21.042186 34.39062-41.699215a5 5 0 0 0 -4.51758-5.439453 5 5 0 0 0 -.5625-.02148z" fill="#ea6e52" font-variant-ligatures="normal" font-variant-position="normal" font-variant-caps="normal" font-variant-numeric="normal" font-variant-alternates="normal" font-variant-east-asian="normal" font-feature-settings="normal" font-variation-settings="normal" text-indent="0" text-align="start" text-decoration-line="none" text-decoration-style="solid" text-decoration-color="#000000" text-transform="none" text-orientation="mixed" white-space="normal" shape-padding="0" shape-margin="0" inline-size="0" isolation="auto" mix-blend-mode="normal" solid-color="#000000" solid-opacity="1" vector-effect="none"/><path id="path867" d="m314.2793-23.15625c-9.63525.000257-17.50006 7.866714-17.5 17.5019531v54.9394529c-.00012.03905-.00014.07813 0 .117188v54.931636c-.00012.039-.00014.0781 0 .11719.004 9.63162 7.8674 17.49193 17.5 17.49219h57.22851c12.30253 0 23.24433-6.21038 30.00196-14.72461 6.6844-8.421998 9.92773-18.849613 9.92773-29.550781 0-10.862534-3.07231-21.464413-9.61133-30.191407-2.00534-2.676343-4.49012-5.079959-7.22461-7.236328 2.12713-5.58275 3.22852-11.544968 3.22852-17.621093 0-10.86253-3.0723-21.464411-9.61133-30.1914066-6.62029-8.8355124-17.67654-15.5839844-30.31836-15.5839844zm0 5h43.62109c10.84463 0 20.57262 5.916318 26.31641 13.5820312 5.82513 7.7742324 8.61328 17.2702648 8.61328 27.1933598 0 6.084267-1.15472 12.01139-3.47461 17.421875a2.50025 2.50025 0 0 0 .84765 3.021484c2.96897 2.115643 5.55654 4.65674 7.6211 7.412109 5.82512 7.774233 8.61328 17.270263 8.61328 27.19336 0 9.694589-2.91824 18.977527-8.84375 26.443361-5.85231 7.37359-15.48113 12.83203-26.08594 12.83203h-57.22851c-6.93308-.00018-12.50004-5.56692-12.5-12.5a2.50025 2.50025 0 0 0 0-.01c-.00011-.0304-.00011-.0615 0-.0918a2.50025 2.50025 0 0 0 0-.008v-54.939029a2.50025 2.50025 0 0 0 0-.0098c-.00011-.03039-.00011-.06141 0-.0918a2.50025 2.50025 0 0 0 0-.0078v-54.9394279c-.00004-6.9330821 5.56692-12.5017681 12.5-12.5019531zm15 25.0019531a2.50025 2.50025 0 0 0 -2.5 2.5v25.0468749a2.50025 2.50025 0 0 0 2.5 2.5h28.62109c1.24869 0 2.51983-.173695 3.66797-.789062s1.98687-1.514195 2.83594-2.583985c2.0017-2.522019 3.42578-6.424749 3.42578-10.90039 0-4.994886-1.52255-9.405-3.61914-12.203125-.89469-1.1940576-1.69554-2.1186614-2.82422-2.7695316-1.12869-.6508702-2.3839-.8007813-3.48633-.8007813zm2.5 4.9999999h26.12109c.75158 0 .83343.04351.98828.132813.15485.0893.58149.449503 1.32031 1.435546 1.17045 1.562081 2.6211 5.326374 2.6211 9.205079 0 3.31167-1.2967 6.476216-2.3418 7.792968-.6743.849594-1.0618 1.164537-1.2832 1.283203-.22141.118667-.46092.197266-1.30469.197266h-26.12109zm-2.5 50.048828a2.50025 2.50025 0 0 0 -2.5 2.5v25.046875a2.50025 2.50025 0 0 0 2.5 2.5h42.22851c1.2487 0 2.51984-.173694 3.66797-.789062s1.98686-1.514208 2.83594-2.583985c2.00167-2.522004 3.42578-6.424746 3.42578-10.90039 0-4.994881-1.52251-9.404985-3.61914-12.203125-.89469-1.19406-1.69553-2.118665-2.82422-2.769532-1.12869-.650866-2.38391-.800781-3.48633-.800781zm2.5 5h39.72851c.75157 0 .83343.04351.98828.132813.15486.0893.58149.449504 1.32032 1.435547 1.17045 1.562068 2.62109 5.326362 2.62109 9.205078 0 3.311654-1.29671 6.476213-2.3418 7.792969-.67432.849603-1.0618 1.164536-1.2832 1.283203s-.46092.197265-1.30469.197265h-39.72851z" font-variant-ligatures="normal" font-variant-position="normal" font-variant-caps="normal" font-variant-numeric="normal" font-variant-alternates="normal" font-variant-east-asian="normal" font-feature-settings="normal" font-variation-settings="normal" text-indent="0" text-align="start" text-decoration-line="none" text-decoration-style="solid" text-decoration-color="#000000" text-transform="none" text-orientation="mixed" white-space="normal" shape-padding="0" shape-margin="0" inline-size="0" isolation="auto" mix-blend-mode="normal" solid-color="#000000" solid-opacity="1" vector-effect="none"/><path id="path871" d="m308.97461-15.662109a2.5 2.5 0 0 0 -1.20899.333984c-3.09981 1.786889-5.32812 5.301526-5.32812 9.3144531v29.0488279a2.5 2.5 0 0 0 2.5 2.5 2.5 2.5 0 0 0 2.5-2.5v-29.0488279c0-1.6663693 1.77228-4.3768601 2.82617-4.9843751a2.5 2.5 0 0 0 .91602-3.414062 2.5 2.5 0 0 0 -2.20508-1.25z" fill="#fff" font-variant-ligatures="normal" font-variant-position="normal" font-variant-caps="normal" font-variant-numeric="normal" font-variant-alternates="normal" font-variant-east-asian="normal" font-feature-settings="normal" font-variation-settings="normal" text-indent="0" text-align="start" text-decoration-line="none" text-decoration-style="solid" text-decoration-color="#000000" text-transform="none" text-orientation="mixed" white-space="normal" shape-padding="0" shape-margin="0" inline-size="0" isolation="auto" mix-blend-mode="normal" solid-color="#000000" solid-opacity="1" vector-effect="none"/></g></g></svg>