<svg id="svg8" height="512" viewBox="0 0 111 111" width="512" xmlns="http://www.w3.org/2000/svg" xmlns:svg="http://www.w3.org/2000/svg"><g id="layer1"><g id="g1309" transform="matrix(.767 0 0 .767 16.879 -8.422)"><path id="path1249" d="m60.245102 13.47366c-37.3815.31896-66.5498798 31.98508-66.7307998 69.40455 0 48.93774 42.8932198 72.65065 70.3838198 70.03707 15.43944-.70757 29.35375-7.64722 39.222948-18.23455 5.64761-6.06018 5.31352-15.55113-.74621-21.19921-6.059618-5.64817-15.550568-5.31501-21.199228.74414-4.40085 4.72106-11.8662 8.40999-18.65054 8.7209-22.31152 1.02251-39.01572-16.32987-39.01572-39.71902 0-23.38916 16.7042-40.73895 39.01572-39.71644 6.78434.31093 14.24969 3.99933 18.65054 8.7204 5.64866 6.05915 15.13961 6.3923 21.199228.74414 6.05973-5.64809 6.39382-15.13903.74621-21.19922-9.869198-10.58732-23.783508-17.52643-39.222948-18.23403-1.2261-.0562-2.4439-.0791-3.65352-.0687z" fill="#ea676c" font-variant-ligatures="normal" font-variant-position="normal" font-variant-caps="normal" font-variant-numeric="normal" font-variant-alternates="normal" font-variant-east-asian="normal" font-feature-settings="normal" font-variation-settings="normal" text-indent="0" text-align="start" text-decoration-line="none" text-decoration-style="solid" text-decoration-color="#000000" text-transform="none" text-orientation="mixed" white-space="normal" shape-padding="0" shape-margin="0" inline-size="0" isolation="auto" mix-blend-mode="normal" solid-color="#000000" solid-opacity="1" vector-effect="none"/><path id="path1290" d="m101.17383 42.107422a5 5 0 0 0 -4.261721 2.591797c.131344-.239127-.805378.99415-2.189453 1.857422-1.384074.863271-3.214102 1.595726-5.146484 1.787109a5 5 0 0 0 -4.482422 5.46875 5 5 0 0 0 5.46875 4.484375c3.728507-.36927 6.929253-1.682894 9.45117-3.255859 2.52192-1.572966 4.36695-3.165786 5.66406-5.527344a5 5 0 0 0 -1.97461-6.789063 5 5 0 0 0 -2.52929-.617187z" fill="#e43a40" font-variant-ligatures="normal" font-variant-position="normal" font-variant-caps="normal" font-variant-numeric="normal" font-variant-alternates="normal" font-variant-east-asian="normal" font-feature-settings="normal" font-variation-settings="normal" text-indent="0" text-align="start" text-decoration-line="none" text-decoration-style="solid" text-decoration-color="#000000" text-transform="none" text-orientation="mixed" white-space="normal" shape-padding="0" shape-margin="0" inline-size="0" isolation="auto" mix-blend-mode="normal" solid-color="#000000" solid-opacity="1" vector-effect="none"/><path id="path1294" d="m100.28125 123.18359a5 5 0 0 0 -3.75 1.7793c-6.705283 7.96575-15.272915 13.60688-24.896484 16.56055a5 5 0 0 0 -3.3125 6.24609 5 5 0 0 0 6.248046 3.3125c11.455325-3.51587 21.69557-10.27592 29.611328-19.67969a5 5 0 0 0 -.60547-7.04492 5 5 0 0 0 -3.29492-1.17383z" fill="#e43a40" font-variant-ligatures="normal" font-variant-position="normal" font-variant-caps="normal" font-variant-numeric="normal" font-variant-alternates="normal" font-variant-east-asian="normal" font-feature-settings="normal" font-variation-settings="normal" text-indent="0" text-align="start" text-decoration-line="none" text-decoration-style="solid" text-decoration-color="#000000" text-transform="none" text-orientation="mixed" white-space="normal" shape-padding="0" shape-margin="0" inline-size="0" isolation="auto" mix-blend-mode="normal" solid-color="#000000" solid-opacity="1" vector-effect="none"/><path id="path1298" d="m60.222656 10.974609c-.04294.000368-.08403.0074-.126953.0078v-.0039a2.50025 2.50025 0 0 0 -.132812.01172c-.0013.000017-.0026-.000016-.0039 0-38.652662.480308-68.7566244 33.252896-68.943359 71.875a2.50025 2.50025 0 0 0 0 .01367c0 25.199271 11.1295904 44.142961 25.789063 56.275391 14.639086 12.11555 32.701647 17.6167 47.267578 16.25195 16.09387-.7537 30.594747-7.989 40.878907-19.02148 6.5687-7.04856 6.17694-18.16318-.87109-24.73243-7.047908-6.56935-18.162504-6.17823-24.732427.86914-3.882227 4.16471-10.970814 7.65439-16.935547 7.92774-20.962367.96068-36.402343-15.02381-36.402343-37.222655 0-22.19885 15.439783-38.179438 36.402343-37.21875 5.964867.273374 13.053382 3.7631 16.935547 7.927735 6.569924 7.047362 17.684518 7.438481 24.732427.869141 7.04803-6.569246 7.43979-17.683856.87109-24.732422-10.296847-11.046072-24.819977-18.28866-40.937508-19.027337-1.22423-.05611-2.44214-.07632-3.652344-.06836-.0026.000018-.0052-.000017-.0078 0a2.50025 2.50025 0 0 0 -.128907-.002c-.000646.000006-.0013-.000005-.002 0zm.04297 4.998047c.000646-.000005.0013.000006.002 0 1.16301-.01 2.334789.01228 3.515625.06641 14.761349.676523 28.068209 7.312845 37.509769 17.441407 4.72652 5.071814 4.44838 12.939101-.62305 17.666015-5.071332 4.72698-12.938619 4.451798-17.666016-.61914-4.919535-5.277485-12.759467-9.165185-20.363281-9.513672-23.660479-1.084331-41.630859 17.633421-41.630859 42.21289 0 24.579464 17.970187 43.301134 41.630859 42.216794 7.603947-.34847 15.443809-4.23625 20.363281-9.51367 4.727398-5.07095 12.594683-5.34613 17.666016-.61914 5.07143 4.72691 5.34957 12.59421.62305 17.66601-9.441589 10.1286-22.748481 16.76492-37.509769 17.44141a2.50025 2.50025 0 0 0 -.121094.008c-12.914207 1.22758-30.010182-3.81817-43.669969-15.12324-13.6574695-11.30315-23.973061-28.67983-23.976563-52.412105v-.0059c-.0000001-.002 0-.0038 0-.0059.1807353-36.121353 28.273963-66.598176 64.25-66.90625z" font-variant-ligatures="normal" font-variant-position="normal" font-variant-caps="normal" font-variant-numeric="normal" font-variant-alternates="normal" font-variant-east-asian="normal" font-feature-settings="normal" font-variation-settings="normal" text-indent="0" text-align="start" text-decoration-line="none" text-decoration-style="solid" text-decoration-color="#000000" text-transform="none" text-orientation="mixed" white-space="normal" shape-padding="0" shape-margin="0" inline-size="0" isolation="auto" mix-blend-mode="normal" solid-color="#000000" solid-opacity="1" vector-effect="none"/><path id="path1302" d="m35.470703 22.068359a2.5 2.5 0 0 0 -.970703.222657c-16.736003 7.558938-27.6913078 22.519337-32.6640625 34.992187a2.5 2.5 0 0 0 1.3964844 3.248047 2.5 2.5 0 0 0 3.2480469-1.396484c4.5382662-11.38305 14.8730822-25.419641 30.0781252-32.28711a2.5 2.5 0 0 0 1.25-3.308594 2.5 2.5 0 0 0 -2.337891-1.470703z" fill="#fff" font-variant-ligatures="normal" font-variant-position="normal" font-variant-caps="normal" font-variant-numeric="normal" font-variant-alternates="normal" font-variant-east-asian="normal" font-feature-settings="normal" font-variation-settings="normal" text-indent="0" text-align="start" text-decoration-line="none" text-decoration-style="solid" text-decoration-color="#000000" text-transform="none" text-orientation="mixed" white-space="normal" shape-padding="0" shape-margin="0" inline-size="0" isolation="auto" mix-blend-mode="normal" solid-color="#000000" solid-opacity="1" vector-effect="none"/></g></g></svg>