<svg id="svg8" height="512" viewBox="0 0 111 111" width="512" xmlns="http://www.w3.org/2000/svg" xmlns:svg="http://www.w3.org/2000/svg"><g id="layer1"><g id="g982" transform="matrix(.768 0 0 .768 -246.988 81.292)"><path id="path929" d="m1349.498-390.42773c-31.311-.00021-56.6935 25.3824-56.6933 56.69335l.5391 413.724614c-.0002 31.310956 25.3823 56.693566 56.6933 56.693356 31.311.00027 56.6936-25.38236 56.6934-56.693356v-149.875h170.0859c31.311.000269 56.6936-25.38236 56.6934-56.693354-.0008-31.31023-25.3832-56.69168-56.6934-56.69141h-170.0859v-93.77344h219.6484c31.3095-.00084 56.6906-25.38196 56.6914-56.69141.0002-31.31021-25.3812-56.69251-56.6914-56.69335z" fill="#febe40" transform="scale(.265)" font-variant-ligatures="normal" font-variant-position="normal" font-variant-caps="normal" font-variant-numeric="normal" font-variant-alternates="normal" font-variant-east-asian="normal" font-feature-settings="normal" font-variation-settings="normal" text-indent="0" text-align="start" text-decoration-line="none" text-decoration-style="solid" text-decoration-color="#000000" text-transform="none" text-orientation="mixed" white-space="normal" shape-padding="0" shape-margin="0" inline-size="0" isolation="auto" mix-blend-mode="normal" solid-color="#000000" solid-opacity="1" vector-effect="none"/><path id="path963" d="m405.17383-29.521484a4.9950752 4.9950752 0 0 0 -4.99414 4.99414 4.9950752 4.9950752 0 0 0 4.99414 4.996094h16.73242a4.9950752 4.9950752 0 0 0 4.99414-4.996094 4.9950752 4.9950752 0 0 0 -4.99414-4.99414z" fill="#feac0b" font-variant-ligatures="normal" font-variant-position="normal" font-variant-caps="normal" font-variant-numeric="normal" font-variant-alternates="normal" font-variant-east-asian="normal" font-feature-settings="normal" font-variation-settings="normal" text-indent="0" text-align="start" text-decoration-line="none" text-decoration-style="solid" text-decoration-color="#000000" text-transform="none" text-orientation="mixed" white-space="normal" shape-padding="0" shape-margin="0" inline-size="0" isolation="auto" mix-blend-mode="normal" solid-color="#000000" solid-opacity="1" vector-effect="none"/><path id="path967" d="m407.11328-83.714844a4.9950752 4.9950752 0 0 0 -4.99609 4.994141 4.9950752 4.9950752 0 0 0 4.99609 4.996094h26.47266a4.9950752 4.9950752 0 0 0 4.99609-4.996094 4.9950752 4.9950752 0 0 0 -4.99609-4.994141z" fill="#feac0b" font-variant-ligatures="normal" font-variant-position="normal" font-variant-caps="normal" font-variant-numeric="normal" font-variant-alternates="normal" font-variant-east-asian="normal" font-feature-settings="normal" font-variation-settings="normal" text-indent="0" text-align="start" text-decoration-line="none" text-decoration-style="solid" text-decoration-color="#000000" text-transform="none" text-orientation="mixed" white-space="normal" shape-padding="0" shape-margin="0" inline-size="0" isolation="auto" mix-blend-mode="normal" solid-color="#000000" solid-opacity="1" vector-effect="none"/><path id="path971" d="m351.17188-98.439453a2.497535 2.497535 0 0 0 -1.53711.554687c-1.92093 1.55349-4.64844 4.472323-4.64844 8.716797v16.804688a2.497535 2.497535 0 0 0 2.49805 2.498047 2.497535 2.497535 0 0 0 2.49804-2.498047v-16.804688c0-1.967634 1.51981-3.802403 2.79297-4.832031a2.497535 2.497535 0 0 0 .37109-3.513672 2.497535 2.497535 0 0 0 -1.9746-.925781z" fill="#fff" font-variant-ligatures="normal" font-variant-position="normal" font-variant-caps="normal" font-variant-numeric="normal" font-variant-alternates="normal" font-variant-east-asian="normal" font-feature-settings="normal" font-variation-settings="normal" text-indent="0" text-align="start" text-decoration-line="none" text-decoration-style="solid" text-decoration-color="#000000" text-transform="none" text-orientation="mixed" white-space="normal" shape-padding="0" shape-margin="0" inline-size="0" isolation="auto" mix-blend-mode="normal" solid-color="#000000" solid-opacity="1" vector-effect="none"/><path id="path975" d="m357.05469-105.80078c-9.63548-.00007-17.50007 7.864534-17.5 17.499999a2.50025 2.50025 0 0 0 0 .0039l.14258 109.464844c.002 9.633656 7.86584 17.496163 17.5 17.496093 9.63547.000082 17.50007-7.864517 17.5-17.5v-37.154296h42.50195c9.63549.000093 17.50006-7.86453 17.5-17.5-.00025-9.635256-7.86476-17.500083-17.5-17.5h-42.50195v-19.810547h55.61523c9.63502-.00026 17.49976-7.864986 17.5-17.5.00007-9.635242-7.86476-17.499753-17.5-17.500003zm0 5h73.25781c6.93308.00018 12.50005 5.566921 12.5 12.499999-.00018 6.932904-5.56708 12.499813-12.5 12.5h-58.11523a2.50025 2.50025 0 0 0 -2.5 2.5v24.810547a2.50025 2.50025 0 0 0 2.5 2.5h45.00195c6.93307-.00006 12.49982 5.566923 12.5 12.5.00004 6.933249-5.56675 12.500067-12.5 12.5h-45.00195a2.50025 2.50025 0 0 0 -2.5 2.5v39.654296c.00005 6.933258-5.56676 12.500059-12.5 12.5-6.93326.000051-12.50005-5.566746-12.5-12.5a2.50025 2.50025 0 0 0 0-.0039l-.14258-109.464844c.002-6.931398 5.56807-12.496138 12.5-12.496088z" font-variant-ligatures="normal" font-variant-position="normal" font-variant-caps="normal" font-variant-numeric="normal" font-variant-alternates="normal" font-variant-east-asian="normal" font-feature-settings="normal" font-variation-settings="normal" text-indent="0" text-align="start" text-decoration-line="none" text-decoration-style="solid" text-decoration-color="#000000" text-transform="none" text-orientation="mixed" white-space="normal" shape-padding="0" shape-margin="0" inline-size="0" isolation="auto" mix-blend-mode="normal" solid-color="#000000" solid-opacity="1" vector-effect="none"/></g></g></svg>