<svg id="svg8" height="512" viewBox="0 0 111 111" width="512" xmlns="http://www.w3.org/2000/svg" xmlns:svg="http://www.w3.org/2000/svg"><g id="layer1"><g id="g997" transform="matrix(.774 0 0 .774 -325.222 8.157)"><path id="path911" d="m1840.416-30.398438c-31.311-.000214-56.6935 25.382403-56.6933 56.69336.0008 31.310194 25.3831 56.69162 56.6933 56.691406h25.1797v229.673832c0 58.70554-25.1103 66.91181-46.6309 66.92382-21.5205.012-46.5722-11.67408-46.5722-66.69531 0-31.311-25.3824-56.69363-56.6934-56.69336-31.311-.00021-56.6935 25.3824-56.6933 56.69336 0 106.00503 56.6935 180.08203 160.0175 180.08203 91.7855 0 159.9571-74.22328 159.9571-180.31054v-229.673832h25.1875c31.3102.000214 56.6925-25.381212 56.6933-56.691406.0002-31.310957-25.3823-56.693574-56.6933-56.69336h-81.8789z" fill="#ee8eb4" transform="scale(.265)" font-variant-ligatures="normal" font-variant-position="normal" font-variant-caps="normal" font-variant-numeric="normal" font-variant-alternates="normal" font-variant-east-asian="normal" font-feature-settings="normal" font-variation-settings="normal" text-indent="0" text-align="start" text-decoration-line="none" text-decoration-style="solid" text-decoration-color="#000000" text-transform="none" text-orientation="mixed" white-space="normal" shape-padding="0" shape-margin="0" inline-size="0" isolation="auto" mix-blend-mode="normal" solid-color="#000000" solid-opacity="1" vector-effect="none"/><path id="path978" d="m476.83594 3.0488281c-1.32833.018668-2.41009 1.0729745-2.46289 2.4003907-.16265 4.1208385.82149 7.7855122 3.36328 10.3222652 2.54179 2.536754 5.15725 3.753907 10.88672 3.753907 2.45923 0 5.18554.0078 5.18554.0078 1.38076-.01608 2.48699-1.148543 2.47071-2.529297-.0161-1.380755-1.14855-2.486983-2.5293-2.470703 0 0-2.692.03167-5.04297-.0078-3.82256-.0642-6.11319-.971283-7.4375-2.292969s-2.02901-3.3271612-1.90039-6.5859376c.0539-1.3796247-1.02077-2.5417471-2.40039-2.5957032-.0442-.00183-.0885-.00248-.13281-.00195z" fill="#fff" font-variant-ligatures="normal" font-variant-position="normal" font-variant-caps="normal" font-variant-numeric="normal" font-variant-alternates="normal" font-variant-east-asian="normal" font-feature-settings="normal" font-variation-settings="normal" text-indent="0" text-align="start" text-decoration-line="none" text-decoration-style="solid" text-decoration-color="#000000" text-transform="none" text-orientation="mixed" white-space="normal" shape-padding="0" shape-margin="0" inline-size="0" isolation="auto" mix-blend-mode="normal" solid-color="#000000" solid-opacity="1" vector-effect="none"/><path id="path982" d="m453.90039 70.287109c-.0234.000321-.0469.000972-.0703.002-4.20512.194656-7.86144 1.986271-10.06446 5.119141-2.20301 3.13287-2.92774 7.333883-2.31835 12.152344.2942 2.326266.61914 5.574219.61914 5.574219.13669 1.373571 1.36075 2.376427 2.73437 2.240234 1.37358-.136687 2.37644-1.36075 2.24024-2.734375 0 0-.32344-3.260773-.63282-5.707031-.50212-3.970374.16965-6.833516 1.44727-8.650391 1.27761-1.816875 3.18591-2.860242 6.20508-3 1.37981-.06326 2.44685-1.233505 2.38281-2.613281-.0632-1.351547-1.19017-2.407548-2.54297-2.382813z" fill="#fff" font-variant-ligatures="normal" font-variant-position="normal" font-variant-caps="normal" font-variant-numeric="normal" font-variant-alternates="normal" font-variant-east-asian="normal" font-feature-settings="normal" font-variation-settings="normal" text-indent="0" text-align="start" text-decoration-line="none" text-decoration-style="solid" text-decoration-color="#000000" text-transform="none" text-orientation="mixed" white-space="normal" shape-padding="0" shape-margin="0" inline-size="0" isolation="auto" mix-blend-mode="normal" solid-color="#000000" solid-opacity="1" vector-effect="none"/><path id="path986" d="m509.16602 96.535156c-4.8386 14.077584-14.68453 21.785424-29.86719 21.759764-2.76219-.005-5.00546 2.23-5.00977 4.99219-.004 2.76143 2.23076 5.0035 4.99219 5.00781 18.90081.0319 33.40155-11.22698 39.3418-28.509764.89743-2.611486-.49205-5.456031-3.10352-6.353515-2.65659-.822853-5.58194 1.020698-6.35351 3.103515z" fill="#e86498" font-variant-ligatures="normal" font-variant-position="normal" font-variant-caps="normal" font-variant-numeric="normal" font-variant-alternates="normal" font-variant-east-asian="normal" font-feature-settings="normal" font-variation-settings="normal" text-indent="0" text-align="start" text-decoration-line="none" text-decoration-style="solid" text-decoration-color="#000000" text-transform="none" text-orientation="mixed" white-space="normal" shape-padding="0" shape-margin="0" inline-size="0" isolation="auto" mix-blend-mode="normal" solid-color="#000000" solid-opacity="1" vector-effect="none"/><path id="path990" d="m486.94336-10.542969c-9.63548-.000066-17.50006 7.8645383-17.5 17.5000002.00024 9.6352438 7.86477 17.5000648 17.5 17.4999998h4.16211v58.267578c0 7.409813-1.59068 11.117338-3.3418 12.951172-1.75111 1.833834-3.96827 2.254447-6.49805 2.25586-2.39397.0013-4.64172-.570814-6.44921-2.548829-1.8075-1.978014-3.3711-5.698229-3.3711-12.597656 0-9.635459-7.86451-17.500083-17.5-17.5-9.63548-.000065-17.50006 7.864536-17.5 17.5 0 14.469264 3.87114 26.997424 11.51563 35.962894s19.05591 14.18359 33.32226 14.18359c25.63268 0 44.82227-21.06711 44.82227-50.207031v-58.267578h4.16406c9.63524.000065 17.49976-7.864758 17.5-17.4999998.00006-9.6354619-7.86452-17.5000662-17.5-17.5000002h-21.66406zm0 5.0000002h21.66211 21.66406c6.93326-.0000477 12.50004 5.56674758 12.5 12.5-.00017 6.9330718-5.56692 12.5000468-12.5 12.4999998h-6.66406c-1.38065.000138-2.49986 1.119345-2.5 2.5v60.767578c0 26.997921-16.88512 45.207031-39.82227 45.207031-13.07145 0-22.82753-4.58164-29.51758-12.42773-6.69004-7.8461-10.32031-19.140855-10.32031-32.718754-.00004-6.933251 5.56674-12.500047 12.5-12.5 6.93326-.00006 12.5 5.566722 12.5 12.5 0 7.658276 1.74957 12.764157 4.67969 15.970703 2.93012 3.206551 6.84455 4.177521 10.14453 4.175781 3.16423-.002 7.11706-.66702 10.11133-3.802734 2.99426-3.135709 4.72461-8.281597 4.72461-16.404297v-60.767578c-.00014-1.380655-1.11935-2.499862-2.5-2.5h-6.66211c-6.93307.000047-12.49982-5.56693-12.5-12.4999998-.00004-6.93325242 5.56674-12.5000477 12.5-12.5z" font-variant-ligatures="normal" font-variant-position="normal" font-variant-caps="normal" font-variant-numeric="normal" font-variant-alternates="normal" font-variant-east-asian="normal" font-feature-settings="normal" font-variation-settings="normal" text-indent="0" text-align="start" text-decoration-line="none" text-decoration-style="solid" text-decoration-color="#000000" text-transform="none" text-orientation="mixed" white-space="normal" shape-padding="0" shape-margin="0" inline-size="0" isolation="auto" mix-blend-mode="normal" solid-color="#000000" solid-opacity="1" vector-effect="none"/></g></g></svg>