<svg id="svg8" height="512" viewBox="0 0 111 111" width="512" xmlns="http://www.w3.org/2000/svg" xmlns:svg="http://www.w3.org/2000/svg"><g id="layer1"><g id="g987" transform="matrix(.774 0 0 .774 -340.834 8.165)"><path id="path908" d="m1794.4922-30.398438c-31.3102.000836-56.6916 25.383145-56.6914 56.69336v409.398438c-.0002 31.31021 25.3812 56.69252 56.6914 56.69336h279.2578c31.311.00027 56.6936-25.38236 56.6934-56.69336.0002-31.311-25.3824-56.69363-56.6934-56.69336h-222.5645v-352.705078c.0002-31.310957-25.3823-56.693574-56.6933-56.69336z" fill="#dc166d" transform="scale(.265)" font-variant-ligatures="normal" font-variant-position="normal" font-variant-caps="normal" font-variant-numeric="normal" font-variant-alternates="normal" font-variant-east-asian="normal" font-feature-settings="normal" font-variation-settings="normal" text-indent="0" text-align="start" text-decoration-line="none" text-decoration-style="solid" text-decoration-color="#000000" text-transform="none" text-orientation="mixed" white-space="normal" shape-padding="0" shape-margin="0" inline-size="0" isolation="auto" mix-blend-mode="normal" solid-color="#000000" solid-opacity="1" vector-effect="none"/><path id="path973" d="m465.9668-1.21875c-2.83046 2.7868495-3.39063 6.349785-3.39063 9.4589844v30.3964846c0 1.380713 1.11929 2.500003 2.5 2.5 1.38071.000003 2.5-1.119287 2.5-2.5v-30.3964846c0-2.6355378.25355-4.27694 1.89844-5.8964844.98365-.9687003.99589-2.551358.0273-3.5351562-1.05435-.9567065-2.59925-.9220911-3.53515-.027344z" fill="#fff" font-variant-ligatures="normal" font-variant-position="normal" font-variant-caps="normal" font-variant-numeric="normal" font-variant-alternates="normal" font-variant-east-asian="normal" font-feature-settings="normal" font-variation-settings="normal" text-indent="0" text-align="start" text-decoration-line="none" text-decoration-style="solid" text-decoration-color="#000000" text-transform="none" text-orientation="mixed" white-space="normal" shape-padding="0" shape-margin="0" inline-size="0" isolation="auto" mix-blend-mode="normal" solid-color="#000000" solid-opacity="1" vector-effect="none"/><path id="path977" d="m552.17773 117.40039c-.66121.66121-2.73115 1.71094-3.74023 1.71094h-22.98242c-2.76142 0-5 2.23858-5 5s2.23858 5 5 5h22.98242c4.7168 0 8.30626-2.13634 10.81055-4.64063 1.95212-1.95253 1.95212-5.11778 0-7.07031-2.11789-1.89939-5.21681-1.79917-7.07032 0z" fill="#ac1155" font-variant-ligatures="normal" font-variant-position="normal" font-variant-caps="normal" font-variant-numeric="normal" font-variant-alternates="normal" font-variant-east-asian="normal" font-feature-settings="normal" font-variation-settings="normal" text-indent="0" text-align="start" text-decoration-line="none" text-decoration-style="solid" text-decoration-color="#000000" text-transform="none" text-orientation="mixed" white-space="normal" shape-padding="0" shape-margin="0" inline-size="0" isolation="auto" mix-blend-mode="normal" solid-color="#000000" solid-opacity="1" vector-effect="none"/><path id="path981" d="m474.79297-10.542969c-9.63524.000258-17.50007 7.8647572-17.5 17.5000002v108.3203088c-.00007 9.63525 7.86475 17.49975 17.5 17.5h73.88672c9.63548.00009 17.50006-7.86452 17.5-17.5.00006-9.63547-7.86452-17.500078-17.5-17.499996h-56.38672v-90.8203128c.00006-9.6354617-7.86452-17.5000662-17.5-17.5000002zm0 5.0000002c6.93326-.0000473 12.50004 5.56674782 12.5 12.5v93.3203088c.00014 1.38065 1.11935 2.49986 2.5 2.5h58.88672c6.93325-.00005 12.50004 5.56674 12.5 12.5.00004 6.93327-5.56675 12.50006-12.5 12.5h-73.88672c-6.93308-.00018-12.50005-5.56692-12.5-12.5v-108.3203088c-.00005-6.93307892 5.56692-12.4998148 12.5-12.5z" font-variant-ligatures="normal" font-variant-position="normal" font-variant-caps="normal" font-variant-numeric="normal" font-variant-alternates="normal" font-variant-east-asian="normal" font-feature-settings="normal" font-variation-settings="normal" text-indent="0" text-align="start" text-decoration-line="none" text-decoration-style="solid" text-decoration-color="#000000" text-transform="none" text-orientation="mixed" white-space="normal" shape-padding="0" shape-margin="0" inline-size="0" isolation="auto" mix-blend-mode="normal" solid-color="#000000" solid-opacity="1" vector-effect="none"/></g></g></svg>