<svg id="svg8" height="512" viewBox="0 0 111 111" width="512" xmlns="http://www.w3.org/2000/svg" xmlns:svg="http://www.w3.org/2000/svg"><g id="layer1"><g id="g1068" transform="matrix(.769 0 0 .769 -335.673 8.11)"><path id="path951" d="m1715.6992-30.398438c-31.311-.000214-56.6935 25.382403-56.6933 56.69336v1.367187 1.214844 410.595707c-.0002 31.31096 25.3823 56.69357 56.6933 56.69336 31.311.00027 56.6936-25.38236 56.6934-56.69336v-274.3125l109.8125 109.80859c22.1397 22.13857 58.0341 22.13857 80.1738 0l109.8145-109.81445v274.31836c-.0002 31.31021 25.3812 56.69252 56.6914 56.69336 31.311.00021 56.6935-25.3824 56.6933-56.69336v-413.177738c.0002-31.310957-25.3823-56.693574-56.6933-56.69336-19.4789.00054-37.5935 10.001106-47.9727 26.4843755l-158.6191 158.6210925-158.6211-158.6210925c-10.3792-16.4832695-28.4938-26.4838355-47.9727-26.4843755z" fill="#dd94c1" transform="scale(.265)" font-variant-ligatures="normal" font-variant-position="normal" font-variant-caps="normal" font-variant-numeric="normal" font-variant-alternates="normal" font-variant-east-asian="normal" font-feature-settings="normal" font-variation-settings="normal" text-indent="0" text-align="start" text-decoration-line="none" text-decoration-style="solid" text-decoration-color="#000000" text-transform="none" text-orientation="mixed" white-space="normal" shape-padding="0" shape-margin="0" inline-size="0" isolation="auto" mix-blend-mode="normal" solid-color="#000000" solid-opacity="1" vector-effect="none"/><path id="path1044" d="m444.4375-.921875c-1.22515 1.34349282-2.01368 3.0186922-2.37109 4.8652344-.35742 1.8465422-.39844 3.8903473-.39844 6.6132816v17.546875c0 1.380713 1.11929 2.500003 2.5 2.5 1.38071.000003 2.5-1.119287 2.5-2.5v-17.546875c0-2.6497054.0778-4.471852.30859-5.6640629.23077-1.1922108.50079-1.7265303 1.15625-2.4453125.93146-1.0202321.85886-2.60255175-.16211-3.5332031-1.08789-.9062085-2.66102-.7633875-3.5332.1640625z" fill="#fff" font-variant-ligatures="normal" font-variant-position="normal" font-variant-caps="normal" font-variant-numeric="normal" font-variant-alternates="normal" font-variant-east-asian="normal" font-feature-settings="normal" font-variation-settings="normal" text-indent="0" text-align="start" text-decoration-line="none" text-decoration-style="solid" text-decoration-color="#000000" text-transform="none" text-orientation="mixed" white-space="normal" shape-padding="0" shape-margin="0" inline-size="0" isolation="auto" mix-blend-mode="normal" solid-color="#000000" solid-opacity="1" vector-effect="none"/><path id="path1048" d="m561.69727-5.6386719c-.20091.00136-.40092.026936-.59571.076172-3.99403 1.0123441-6.12907 3.3575899-8.78711 6.015625l-14.22461 14.1855469c-.97714.975189-.97889 2.557813-.004 3.535156.97465.977678 2.55727.980301 3.53515.0059l14.22657-14.1875004.002-.00391c2.76063-2.7606265 3.7546-4.01416974 6.48047-4.70507808 1.33793-.33948182 2.14755-1.69904872 1.80859-3.03710932-.28312-1.1152103-1.29084-1.8931751-2.4414-1.8847657z" fill="#fff" font-variant-ligatures="normal" font-variant-position="normal" font-variant-caps="normal" font-variant-numeric="normal" font-variant-alternates="normal" font-variant-east-asian="normal" font-feature-settings="normal" font-variation-settings="normal" text-indent="0" text-align="start" text-decoration-line="none" text-decoration-style="solid" text-decoration-color="#000000" text-transform="none" text-orientation="mixed" white-space="normal" shape-padding="0" shape-margin="0" inline-size="0" isolation="auto" mix-blend-mode="normal" solid-color="#000000" solid-opacity="1" vector-effect="none"/><path id="path1052" d="m572.2793 90.148438c-2.7607-.02166-5.01651 2.198287-5.03907 4.958984l-.16015 20.130858c-.00005.013-.00005.026 0 .0391 0 2.11925-2.12377 5.48275-5.38477 5.47266-2.76143-.009-5.00701 2.22295-5.01562 4.98438-.009 2.76143 2.22294 5.007 4.98437 5.01562 9.21627.0285 15.41602-7.72672 15.41602-15.47266l.16015-20.08984c.0217-2.761455-2.19947-5.017568-4.96093-5.039062z" fill="#d06caa" font-variant-ligatures="normal" font-variant-position="normal" font-variant-caps="normal" font-variant-numeric="normal" font-variant-alternates="normal" font-variant-east-asian="normal" font-feature-settings="normal" font-variation-settings="normal" text-indent="0" text-align="start" text-decoration-line="none" text-decoration-style="solid" text-decoration-color="#000000" text-transform="none" text-orientation="mixed" white-space="normal" shape-padding="0" shape-margin="0" inline-size="0" isolation="auto" mix-blend-mode="normal" solid-color="#000000" solid-opacity="1" vector-effect="none"/><path id="path1056" d="m520.97852 55.400391-8.41407 8.423828c-1.01285 1.012615-1.64625 1.489197-3.21093 1.898437-2.67118.698679-4.27042 3.430248-3.57227 6.101563.69868 2.671175 3.43025 4.270418 6.10156 3.572265 3.35942-.878647 5.96197-2.711967 7.75391-4.503906l.002-.002 8.41602-8.423828c1.95234-1.953838 1.95059-5.120588-.004-7.072266-2.11996-1.896715-5.21981-1.794276-7.07226.0059z" fill="#d06caa" font-variant-ligatures="normal" font-variant-position="normal" font-variant-caps="normal" font-variant-numeric="normal" font-variant-alternates="normal" font-variant-east-asian="normal" font-feature-settings="normal" font-variation-settings="normal" text-indent="0" text-align="start" text-decoration-line="none" text-decoration-style="solid" text-decoration-color="#000000" text-transform="none" text-orientation="mixed" white-space="normal" shape-padding="0" shape-margin="0" inline-size="0" isolation="auto" mix-blend-mode="normal" solid-color="#000000" solid-opacity="1" vector-effect="none"/><path id="path1060" d="m453.94531-10.542969c-9.63547-.000064-17.50007 7.8645306-17.5 17.5000002v.3613282c-.001.1165341-.001.2330764 0 .3496094v108.6093712c-.00007 9.63547 7.86453 17.50007 17.5 17.5 9.63549.00009 17.50008-7.86451 17.5-17.5v-66.542965l24.78711 24.785156c6.81317 6.81281 17.93488 6.81281 24.74805 0l24.78711-24.787109v66.544918c-.00008 9.63525 7.86475 17.49975 17.5 17.5 9.63547.00007 17.50008-7.86453 17.5-17.5v-109.3203088c.00007-9.6354696-7.86453-17.5000642-17.5-17.5000002-6.00942.000166-11.60651 3.0905337-14.8086 8.1757815l.34766-.4355469-40.19922 40.2011724-40.20117-40.2011724.34766.4355469c-3.20209-5.0852478-8.79918-8.1756155-14.8086-8.1757815zm0 5.0000002c4.29815.0001183 8.28788 2.2026925 10.57813 5.8398438.0993.15768365.2159.30377316.34765.43554688l41.96875 41.96875012c.97633.975923 2.55883.975923 3.53516 0l41.9668-41.96875012c.13175-.13177372.24836-.27786323.34765-.43554688 2.29025-3.6371513 6.27998-5.8397255 10.57813-5.8398438 6.93324-.0000462 12.50005 5.56675671 12.5 12.5v109.3203088c.00005 6.93325-5.56676 12.50005-12.5 12.5-6.93308-.00018-12.50006-5.56692-12.5-12.5v-72.580074c-.00087-2.226594-2.69259-3.341472-4.26758-1.767578l-29.05469 29.054687c-4.90243 4.902181-12.7753 4.902181-17.67773 0l-29.05469-29.052734c-1.57499-1.573894-4.26671-.459016-4.26758 1.767578v72.578121c.00006 6.93326-5.56674 12.50006-12.5 12.5-6.93324.00005-12.50005-5.56675-12.5-12.5v-108.636715c.00005-.00911.00005-.018229 0-.027344-.00095-.089283-.00095-.1782951 0-.2675781.00005-.00911.00005-.018229 0-.027344v-.3613277c-.00005-6.93324329 5.56676-12.5000462 12.5-12.5z" font-variant-ligatures="normal" font-variant-position="normal" font-variant-caps="normal" font-variant-numeric="normal" font-variant-alternates="normal" font-variant-east-asian="normal" font-feature-settings="normal" font-variation-settings="normal" text-indent="0" text-align="start" text-decoration-line="none" text-decoration-style="solid" text-decoration-color="#000000" text-transform="none" text-orientation="mixed" white-space="normal" shape-padding="0" shape-margin="0" inline-size="0" isolation="auto" mix-blend-mode="normal" solid-color="#000000" solid-opacity="1" vector-effect="none"/></g></g></svg>