<svg id="svg8" height="512" viewBox="0 0 111 111" width="512" xmlns="http://www.w3.org/2000/svg" xmlns:svg="http://www.w3.org/2000/svg"><g id="layer1"><g id="g1270" transform="matrix(.769 0 0 .769 -198.233 -121.545)"><path id="path983" d="m301.54568 160.53276c-3.71634.39601-7.11856 1.46511-9.55498 3.437-3.45945 2.79988-5.43806 7.12984-5.44515 11.56312v109.32251c.00021 8.28416 6.71597 14.99968 15.00013 14.9996 8.28415.00008 14.99991-6.71544 15.00013-14.9996v-39.35676c3.77004.0355 7.60333.20981 11.34969.22381 27.06019 0 45.36726-18.5199 45.36723-42.59378 0-23.00482-18.30704-42.59533-45.36723-42.59533zm15.00013 30.00023h11.34969c13.42967 0 15.367 6.13466 15.367 12.59562 0 6.45641-1.93759 12.58338-15.34167 12.592l-11.37502-.22841z" fill="#87d1ee" font-variant-ligatures="normal" font-variant-position="normal" font-variant-caps="normal" font-variant-numeric="normal" font-variant-alternates="normal" font-variant-east-asian="normal" font-feature-settings="normal" font-variation-settings="normal" text-indent="0" text-align="start" text-decoration-line="none" text-decoration-style="solid" text-decoration-color="#000000" text-transform="none" text-orientation="mixed" white-space="normal" shape-padding="0" shape-margin="0" inline-size="0" isolation="auto" mix-blend-mode="normal" solid-color="#000000" solid-opacity="1" vector-effect="none"/><path id="path1046" d="m356.86216 222.58573a5 5 0 0 0 -3.51367 1.46289c-3.84145 3.84145-6.64096 5.89222-11.22656 7.33789s-11.25359 2.15625-21.98828 2.15625a5 5 0 0 0 -5 5 5 5 0 0 0 5 5c11.14845 0 18.73618-.64623 24.99414-2.61914s10.89069-5.40242 15.29101-9.80274a5 5 0 0 0 0-7.07226 5 5 0 0 0 -3.55664-1.46289z" fill="#59c0e8" font-variant-ligatures="normal" font-variant-position="normal" font-variant-caps="normal" font-variant-numeric="normal" font-variant-alternates="normal" font-variant-east-asian="normal" font-feature-settings="normal" font-variation-settings="normal" text-indent="0" text-align="start" text-decoration-line="none" text-decoration-style="solid" text-decoration-color="#000000" text-transform="none" text-orientation="mixed" white-space="normal" shape-padding="0" shape-margin="0" inline-size="0" isolation="auto" mix-blend-mode="normal" solid-color="#000000" solid-opacity="1" vector-effect="none"/><path id="path1038" d="m301.5438 158.03299c-3.76823-.01-7.40609 1.25255-10.42382 3.44336v.002c-.70421.5298-1.42796 1.17555-1.94532 1.67968-.59488.62162-1.17682 1.27828-1.62112 1.86526v.002c-2.27549 3.03386-3.50184 6.73307-3.50781 10.50586v.002 109.32227c.00025 9.63525 7.86475 17.50008 17.5 17.5 9.63525.00008 17.49974-7.86475 17.5-17.5v-36.80664l8.49804.16992c.13348.003.25129.004.35157.004 28.20084 0 47.8672-19.75245 47.86718-45.09375 0-24.33114-19.6004-45.09571-47.86718-45.09571h-26.34961zm.002 5h.002 26.34766c25.85357 0 42.86718 18.41721 42.86718 40.09571.00002 22.80645-16.94767 40.09375-42.86718 40.09375-.10028 0-.18494-.00062-.25196-.002l-11.04882-.22265c-1.39968-.0272-2.54895 1.10005-2.54883 2.5v39.35746c-.00019 6.93308-5.56692 12.50006-12.5 12.5-6.93308.00006-12.49982-5.56692-12.5-12.5v-109.32227c.36583-3.30551 1.27099-6.48117 3.25905-8.4179 2.68266-2.61339 6.11741-4.00043 9.24412-4.08597zm15 25c-1.38065.00014-2.49986 1.11935-2.5 2.5v24.95899c-.00015 1.36107 1.08844 2.47222 2.44922 2.5l11.375.22851c.0176.00019.0351.00019.0527 0 7.08288-.005 11.74214-1.65803 14.5332-4.68164 2.79106-3.0236 3.30664-6.93186 3.30664-10.41015 0-3.48036-.51554-7.39265-3.31054-10.41797s-7.46115-4.67774-14.55664-4.67774zm2.5 5h8.84961c6.33416 0 9.35172 1.41502 10.88281 3.07227 1.53108 1.65725 1.98437 4.04284 1.98437 7.02344 0 2.97812-.4517 5.36144-1.98046 7.01758-1.52751 1.65477-4.53903 3.06784-10.84961 3.07421l-8.88672-.17773z" font-variant-ligatures="normal" font-variant-position="normal" font-variant-caps="normal" font-variant-numeric="normal" font-variant-alternates="normal" font-variant-east-asian="normal" font-feature-settings="normal" font-variation-settings="normal" text-indent="0" text-align="start" text-decoration-line="none" text-decoration-style="solid" text-decoration-color="#000000" text-transform="none" text-orientation="mixed" white-space="normal" shape-padding="0" shape-margin="0" inline-size="0" isolation="auto" mix-blend-mode="normal" solid-color="#000000" solid-opacity="1" vector-effect="none"/><path id="path1042" d="m294.52623 166.29862a2.499995 2.499995 0 0 0 -1.93555.88476c-1.67537 1.98121-3.23633 4.54969-3.23633 7.85157v23.49804a2.499995 2.499995 0 0 0 2.5 2.5 2.499995 2.499995 0 0 0 2.5-2.5v-23.49804c0-1.83619.69764-3.01827 2.05469-4.62305a2.499995 2.499995 0 0 0 -.29492-3.52344 2.499995 2.499995 0 0 0 -1.58789-.58984z" fill="#fff" font-variant-ligatures="normal" font-variant-position="normal" font-variant-caps="normal" font-variant-numeric="normal" font-variant-alternates="normal" font-variant-east-asian="normal" font-feature-settings="normal" font-variation-settings="normal" text-indent="0" text-align="start" text-decoration-line="none" text-decoration-style="solid" text-decoration-color="#000000" text-transform="none" text-orientation="mixed" white-space="normal" shape-padding="0" shape-margin="0" inline-size="0" isolation="auto" mix-blend-mode="normal" solid-color="#000000" solid-opacity="1" vector-effect="none"/></g></g></svg>