<svg id="svg8" height="512" viewBox="0 0 111 111" width="512" xmlns="http://www.w3.org/2000/svg" xmlns:svg="http://www.w3.org/2000/svg"><g id="layer1"><g id="g1295" transform="matrix(.773 0 0 .773 -312.865 -121.451)"><path id="path968-2-1" d="m476.33414 159.89433c-20.91124 0-40.54459 8.67176-51.7498 21.92218-11.75803 13.22574-17.30076 30.27589-17.30076 47.12064 0 16.84473 5.54273 33.89542 17.30076 47.12115 14.39529 15.76594 33.77533 21.92425 51.7498 21.92425 14.37769-.0127 27.44996-4.10226 37.81216-10.39421l6.5314 6.0937a15 15 0 0 0 21.2013-.73639 15 15 0 0 0 -.73642-21.19924l-5.86732-5.47407c6.83898-11.35108 10.11203-24.40281 10.11203-37.33519 0-16.84475-5.54479-33.8949-17.30282-47.12064-14.96865-15.9621-33.70678-21.92218-51.75033-21.92218zm0 30.00024c14.26792 0 23.06918 4.81449 29.32845 11.85509 6.2593 7.04059 9.72447 17.01043 9.72447 27.18749 0 5.54219-1.03015 11.0224-2.97709 16.00264l-8.12869-7.58403a15 15 0 0 0 -10.37095-4.03335 15 15 0 0 0 -10.83035 4.76767 15 15 0 0 0 .73639 21.20129l7.0616 6.58823c-4.11425 1.34663-8.89977 2.10272-14.54383 2.10272-14.26787 0-23.06865-4.81503-29.32793-11.85562-6.25927-7.0406-9.7229-17.01251-9.7229-27.18955 0-10.17706 3.46363-20.1469 9.7229-27.18749 6.25928-7.0406 15.06006-11.85509 29.32793-11.85509z" fill="#2bb3cd" font-variant-ligatures="normal" font-variant-position="normal" font-variant-caps="normal" font-variant-numeric="normal" font-variant-alternates="normal" font-variant-east-asian="normal" font-feature-settings="normal" font-variation-settings="normal" text-indent="0" text-align="start" text-decoration-line="none" text-decoration-style="solid" text-decoration-color="#000000" text-transform="none" text-orientation="mixed" white-space="normal" shape-padding="0" shape-margin="0" inline-size="0" isolation="auto" mix-blend-mode="normal" solid-color="#000000" solid-opacity="1" vector-effect="none"/><path id="path1281" d="m519.31836 278.27344a5 5 0 0 0 -3.625 1.64453 5 5 0 0 0 .35352 7.0625l6.05664 5.48047-.17969-.17188c5.49699 5.49701 13.82056 4.72258 18.68359.38477a5 5 0 0 0 .4043-7.06055 5 5 0 0 0 -7.06055-.40234c-1.26199 1.12569-3.31528 1.64761-4.95703.006a5.0005 5.0005 0 0 0 -.18164-.17188l-6.05664-5.48047a5 5 0 0 0 -3.4375-1.29101z" fill="#2291a5" font-variant-ligatures="normal" font-variant-position="normal" font-variant-caps="normal" font-variant-numeric="normal" font-variant-alternates="normal" font-variant-east-asian="normal" font-feature-settings="normal" font-variation-settings="normal" text-indent="0" text-align="start" text-decoration-line="none" text-decoration-style="solid" text-decoration-color="#000000" text-transform="none" text-orientation="mixed" white-space="normal" shape-padding="0" shape-margin="0" inline-size="0" isolation="auto" mix-blend-mode="normal" solid-color="#000000" solid-opacity="1" vector-effect="none"/><path id="path1285" d="m476.33398 157.39453c-21.59106 0-41.84828 8.86053-53.63867 22.78711-12.19238 13.72796-17.91211 31.37328-17.91211 48.75586 0 17.39314 5.72587 35.04969 17.9336 48.78125a2.50025 2.50025 0 0 0 .0215.0254c14.93007 16.35163 35.05022 22.73828 53.5957 22.73828a2.50025 2.50025 0 0 0 .002 0c14.10534-.0125 26.92157-3.89261 37.39062-9.86719l5.2461 4.89454c7.04577 6.5733 18.16165 6.18694 24.73437-.85938 6.5717-7.04548 6.18538-18.15994-.85937-24.73242l-4.49805-4.19531c6.38146-11.34144 9.53711-24.10415 9.53711-36.78516 0-17.39337-5.72599-35.04982-17.9336-48.78125a2.50025 2.50025 0 0 0 -.0449-.0508c-15.46842-16.49496-34.98021-22.71093-53.5743-22.71093zm0 5c17.48326 0 35.4376 5.69965 49.90235 21.10938 11.29379 12.71671 16.65039 29.14776 16.65039 45.43359 0 12.51056-3.16819 25.11743-9.75195 36.04492a2.50025 2.50025 0 0 0 .43554 3.11719l5.86719 5.47461c5.06907 4.72924 5.34196 12.59642.61328 17.66601-4.72943 5.07022-12.59815 5.34314-17.66797.61329l-6.53125-6.09375a2.50025 2.50025 0 0 0 -3.00195-.3086c-9.9752 6.05697-22.61143 10.01859-36.51563 10.03125-17.39388 0-36.02271-5.92416-49.88086-21.08594l-.002-.002c-11.30708-12.71962-16.66797-29.1616-16.66797-45.45703 0-16.29634 5.36156-32.73904 16.66992-45.45898a2.50025 2.50025 0 0 0 .041-.0469c10.62274-12.56163 29.61977-21.03711 49.83984-21.03711zm0 25c-14.83025 0-24.53891 5.20606-31.19531 12.69336-6.73365 7.57418-10.35547 18.10532-10.35547 28.84961 0 10.74427 3.62166 21.27524 10.35547 28.84961 6.65636 7.48725 16.365 12.69531 31.19531 12.69531 5.86735 0 10.92627-.78771 15.32227-2.22656a2.50025 2.50025 0 0 0 .92773-4.20508l-7.0625-6.58789c-5.0702-4.72943-5.34312-12.59815-.61328-17.66797 2.33763-2.50601 5.5985-3.94104 9.02539-3.97265 3.20603-.0292 6.29866 1.17375 8.64258 3.36132l8.12891 7.58399a2.50025 2.50025 0 0 0 4.0332-.91797c2.06449-5.28095 3.14844-11.06013 3.14844-16.91211 0-10.74454-3.62193-21.27558-10.35547-28.84961-6.65645-7.48735-16.36695-12.69336-31.19727-12.69336zm0 5c13.70553 0 21.59883 4.42178 27.46094 11.01563 5.78506 6.50715 9.0918 15.91776 9.0918 25.52734 0 3.91349-.71127 7.72505-1.75195 11.39258l-5.14844-4.80274c-3.28006-3.06126-7.61314-4.74587-12.09961-4.70507-4.79495.0442-9.36393 2.05605-12.63477 5.5625-6.57328 7.04576-6.18692 18.16166.85938 24.73437l3.63867 3.39453c-2.83244.5654-5.87039.96875-9.41602.96875-13.7054 0-21.5968-4.42364-27.45898-11.01758-5.78475-6.50683-9.0918-15.91753-9.0918-25.52734 0-9.60983 3.30689-19.02034 9.0918-25.52734 5.86214-6.5939 13.75352-11.01563 27.45898-11.01563z" font-variant-ligatures="normal" font-variant-position="normal" font-variant-caps="normal" font-variant-numeric="normal" font-variant-alternates="normal" font-variant-east-asian="normal" font-feature-settings="normal" font-variation-settings="normal" text-indent="0" text-align="start" text-decoration-line="none" text-decoration-style="solid" text-decoration-color="#000000" text-transform="none" text-orientation="mixed" white-space="normal" shape-padding="0" shape-margin="0" inline-size="0" isolation="auto" mix-blend-mode="normal" solid-color="#000000" solid-opacity="1" vector-effect="none"/><path id="path1289" d="m453.29883 166.34961a2.499995 2.499995 0 0 0 -.72071.13672c-15.65858 5.40034-27.19851 15.46461-34.84765 30.17187a2.499995 2.499995 0 0 0 1.06445 3.3711 2.499995 2.499995 0 0 0 3.3711-1.06446c7.14069-13.72966 17.45719-22.7216 32.04296-27.75195a2.499995 2.499995 0 0 0 1.54688-3.17969 2.499995 2.499995 0 0 0 -2.45703-1.68359z" fill="#fff" font-variant-ligatures="normal" font-variant-position="normal" font-variant-caps="normal" font-variant-numeric="normal" font-variant-alternates="normal" font-variant-east-asian="normal" font-feature-settings="normal" font-variation-settings="normal" text-indent="0" text-align="start" text-decoration-line="none" text-decoration-style="solid" text-decoration-color="#000000" text-transform="none" text-orientation="mixed" white-space="normal" shape-padding="0" shape-margin="0" inline-size="0" isolation="auto" mix-blend-mode="normal" solid-color="#000000" solid-opacity="1" vector-effect="none"/></g></g></svg>