<svg id="svg8" height="512" viewBox="0 0 111 111" width="512" xmlns="http://www.w3.org/2000/svg" xmlns:svg="http://www.w3.org/2000/svg"><g id="layer1"><g id="g1220" transform="matrix(.773 0 0 .773 42.032 -251.451)"><path id="path1151" d="m18.19348 327.76784c-11.3492762.0394-22.1363432 4.74368-29.224057 12.81576-7.52502 8.57012-11.126703 19.8116-10.062435 31.6208 1.064281 11.80921 7.954743 24.36395 20.34191283 31.67973.04277.025.08566.0498.128672.0744l10.44639197 6.03167.0026.002.09405.0543 10.4376062 6.02547c4.442589 2.63073 5.395706 5.16511 5.698876 8.5292.30372 3.37004-1.208373 7.39098-2.728516 9.13329-4.236683 4.85588-12.637968 4.53134-15.4316162-2.43396-2.678851-7.83931-11.205572-12.02262-19.0448318-9.34362-7.838488 2.67971-12.020741 11.20617-9.341549 19.04483 3.320042 9.71473 8.844513 15.28265 15.1034718 19.11925 17.7571592 10.88476 39.5537592 6.7401 51.2599192-6.59184 7.52502-8.57012 11.1267-19.81212 10.06243-31.62133-1.06427-11.8092-7.95681-24.36342-20.34398-31.6792-.0423-.025-.0846-.0498-.12712-.0744l-10.544572-6.08801-10.415902-6.01358-.0062-.004c-4.456882-2.63426-5.9384382-5.16866-6.2419972-8.53695-.30372-3.37004.155686-5.88989 3.2576822-9.13484 5.0706-5.30428 12.637974-4.53135 15.431617 2.43396 2.67885 7.83931 11.205572 12.02262 19.044832 9.34361 7.83869-2.67949 12.0212-11.20602 9.34206-19.04483-3.32011-9.71478-8.84462-15.28063-15.10354-19.11722-7.38822-3.72856-14.826365-6.24523-22.035861-6.22391z" fill="#7ecdca" font-variant-ligatures="normal" font-variant-position="normal" font-variant-caps="normal" font-variant-numeric="normal" font-variant-alternates="normal" font-variant-east-asian="normal" font-feature-settings="normal" font-variation-settings="normal" text-indent="0" text-align="start" text-decoration-line="none" text-decoration-style="solid" text-decoration-color="#000000" text-transform="none" text-orientation="mixed" white-space="normal" shape-padding="0" shape-margin="0" inline-size="0" isolation="auto" mix-blend-mode="normal" solid-color="#000000" solid-opacity="1" vector-effect="none"/><path id="path1206" d="m48.634766 426.31055a5 5 0 0 0 -4.845704 4.14453c-1.878033 10.83772-8.330135 19.06608-18.8125 22.5664a5 5 0 0 0 -3.160156 6.32618 5 5 0 0 0 6.326172 3.1582c13.920198-4.6483 23.080393-16.38072 25.5-30.34375a5 5 0 0 0 -4.072266-5.7793 5 5 0 0 0 -.935546-.0723z" fill="#5abfbb" font-variant-ligatures="normal" font-variant-position="normal" font-variant-caps="normal" font-variant-numeric="normal" font-variant-alternates="normal" font-variant-east-asian="normal" font-feature-settings="normal" font-variation-settings="normal" text-indent="0" text-align="start" text-decoration-line="none" text-decoration-style="solid" text-decoration-color="#000000" text-transform="none" text-orientation="mixed" white-space="normal" shape-padding="0" shape-margin="0" inline-size="0" isolation="auto" mix-blend-mode="normal" solid-color="#000000" solid-opacity="1" vector-effect="none"/><path id="path1210" d="m18.183594 325.26758c-12.0345931.0418-23.4939858 5.01078-31.09375 13.66601-7.979231 9.08742-11.796087 21.04344-10.673828 33.4961 1.136647 12.61218 8.444555 25.8612 21.5605465 33.60742a2.50025 2.50025 0 0 0 .011719.006c.049279.0288.097428.0578.1464844.0859l10.3691406 5.98632-.064453-.043a2.50025 2.50025 0 0 0 .1367188.0859l.095703.0527 10.4121087 6.01172c.000565.00033.0014-.00034.002 0 3.970141 2.35127 4.209304 3.59457 4.480468 6.60351.221181 2.45421-1.313698 6.34023-2.121094 7.26563-1.562016 1.7903-3.928606 2.62469-6.085937 2.375-2.157331-.2497-4.063077-1.40619-5.142578-4.09766l.04687.12305c-3.1157489-9.11785-13.1029219-14.01632-22.220703-10.90039-9.116883 3.11675-14.014598 13.10166-10.898438 22.21875 3.499957 10.24118 9.543147 16.38413 16.1621099 20.4414 18.7753861 11.50891 41.8934661 7.22086 54.4453121-7.07422 7.979263-9.08745 11.796087-21.04148 10.673828-33.49414-1.136622-12.61202-8.445595-25.86117-21.560547-33.60742h-.002c-.04689-.0277-.09615-.0568-.146484-.0859a2.50025 2.50025 0 0 0 -.002-.002l-10.544922-6.08789-10.345703-5.97266.06055.041a2.50025 2.50025 0 0 0 -.113282-.0723c-4.06114-2.40035-4.777039-3.85368-5.02539-6.60937-.273491-3.03463-.164312-4.31682 2.576172-7.18359 2.064133-2.15926 4.427319-2.91207 6.416015-2.63477s3.768324 1.48498 4.886719 4.27344l-.04492-.12305c3.115749 9.11784 13.100969 14.01633 22.21875 10.90039 9.117126-3.11649 14.016491-13.10148 10.900391-22.21875-3.500003-10.24138-9.545487-16.3824-16.164063-20.43945a2.50025 2.50025 0 0 0 -.179687-.10156c-7.453661-3.76158-15.100606-6.38869-22.759766-6.45899a2.50025 2.50025 0 0 0 -.0078-.002 2.50025 2.50025 0 0 0 -.390625-.0312 2.50025 2.50025 0 0 0 -.01172 0 2.50025 2.50025 0 0 0 -.002 0zm.01758 5c6.590773-.0195 13.64471 2.31155 20.798828 5.91015 5.864637 3.61222 10.84085 8.59338 13.966797 17.74024 2.2422 6.56035-1.224902 13.62861-7.785156 15.87109-6.560739 2.24209-13.62719-1.22633-15.869141-7.78711a2.50025 2.50025 0 0 0 -.04687-.12109c-1.675255-4.17686-5.074886-6.83886-8.835937-7.36328-3.761052-.52443-7.71619.98584-10.7226568 4.13086-3.4635169 3.62312-4.2734019 7.38243-3.9394531 11.08789.3586433 3.97948 2.6059742 7.59325 7.4550779 10.46094.0017.001.0022.003.0039.004a2.50025 2.50025 0 0 0 .02734.0156l10.416016 6.01367 10.542969 6.08789c.0342.0198.07015.0405.107421.0625 11.658499 6.88543 18.135077 18.74603 19.126954 29.75195 1.006281 11.16576-2.380395 21.69331-9.451172 29.7461-10.860474 12.3688-31.337238 16.37193-48.0761721 6.11132-5.8989571-3.61592-10.9028459-8.60859-14.0429689-17.79687-2.242239-6.56022 1.223126-13.62843 7.783203-15.87109 6.5607388-2.24208 13.629143 1.22632 15.871094 7.78711a2.50025 2.50025 0 0 0 .044922.12109c1.7141492 4.27381 5.408092 6.7632 9.208984 7.20312 3.800892.43993 7.753071-.98913 10.427735-4.05468 2.232904-2.55925 3.720243-6.71606 3.333984-11.00196-.335137-3.71881-2.00065-7.5475-6.914063-10.45703a2.50025 2.50025 0 0 0 -.02539-.0137l-10.4375-6.02539-.02344-.0137.06445.043a2.50025 2.50025 0 0 0 -.136719-.0859l-10.44725688-6.03133a2.50025 2.50025 0 0 0 -.007813-.004c-.0368837-.0211-.0730536-.0432-.109375-.0645-11.65147012-6.88616-18.12167712-18.74122-19.11328112-29.744-1.006281-11.16577 2.380363-21.69522 9.4511722-29.74805 6.5756752-7.48892 16.6895682-11.92782 27.3535158-11.96484z" font-variant-ligatures="normal" font-variant-position="normal" font-variant-caps="normal" font-variant-numeric="normal" font-variant-alternates="normal" font-variant-east-asian="normal" font-feature-settings="normal" font-variation-settings="normal" text-indent="0" text-align="start" text-decoration-line="none" text-decoration-style="solid" text-decoration-color="#000000" text-transform="none" text-orientation="mixed" white-space="normal" shape-padding="0" shape-margin="0" inline-size="0" isolation="auto" mix-blend-mode="normal" solid-color="#000000" solid-opacity="1" vector-effect="none"/><path id="path1214" d="m6.7558594 332.26758a2.499995 2.499995 0 0 0 -.7207032.1289c-13.0607378 4.36131-21.5439122 15.21673-23.8281252 28.39844a2.499995 2.499995 0 0 0 2.035157 2.89063 2.499995 2.499995 0 0 0 2.890624-2.03711c2.013428-11.61907 9.1425534-20.72245 20.4843755-24.50977a2.499995 2.499995 0 0 0 1.5800781-3.16406 2.499995 2.499995 0 0 0 -2.4414062-1.70703z" fill="#fff" font-variant-ligatures="normal" font-variant-position="normal" font-variant-caps="normal" font-variant-numeric="normal" font-variant-alternates="normal" font-variant-east-asian="normal" font-feature-settings="normal" font-variation-settings="normal" text-indent="0" text-align="start" text-decoration-line="none" text-decoration-style="solid" text-decoration-color="#000000" text-transform="none" text-orientation="mixed" white-space="normal" shape-padding="0" shape-margin="0" inline-size="0" isolation="auto" mix-blend-mode="normal" solid-color="#000000" solid-opacity="1" vector-effect="none"/></g></g></svg>