<svg id="svg8" height="512" viewBox="0 0 111 111" width="512" xmlns="http://www.w3.org/2000/svg" xmlns:svg="http://www.w3.org/2000/svg"><g id="layer1"><g id="g1182" transform="matrix(.769 0 0 .769 -117.302 -3.745)"><path id="path962" d="m170.19111 7.4297612c-9.79247.31924-17.04368 9.4130408-14.57223 18.6365908l27.33011 109.322528c1.56106 5.82593 5.79891 11.3603 14.74186 11.3603 6.60012 0 11.20034-4.4943 13.25709-8.35308l13.88287-27.49703 13.86117 27.45311c1.94544 3.96953 5.5428 6.87881 9.83144 7.95093 3.16805.77672 6.5047.50004 9.5172-.75302 4.72503-2.26174 7.59478-6.01965 8.67239-10.16112l27.32945-109.322618c2.72092-10.15463-5.39629-18.5401508-14.45853-18.6365908-6.91719-.0427-12.96661 4.6503508-14.6446 11.3610698l-17.55448 70.21793-9.1643-18.15135c-2.52241-4.94802-7.03108-8.23849-13.5413-8.23849-5.64458.059-10.66299 3.29322-13.25654 8.27454l-9.14569 18.11517-17.55449-70.21793c-1.66784-6.669659-7.65638-11.3516698-14.53141-11.3610698z" fill="#c9db53" font-variant-ligatures="normal" font-variant-position="normal" font-variant-caps="normal" font-variant-numeric="normal" font-variant-alternates="normal" font-variant-east-asian="normal" font-feature-settings="normal" font-variation-settings="normal" text-indent="0" text-align="start" text-decoration-line="none" text-decoration-style="solid" text-decoration-color="#000000" text-transform="none" text-orientation="mixed" white-space="normal" shape-padding="0" shape-margin="0" inline-size="0" isolation="auto" mix-blend-mode="normal" solid-color="#000000" solid-opacity="1" vector-effect="none"/><g fill="#fff"><path id="path1153" d="m164.88086 11.707031c-1.97244.936287-3.64673 2.638517-4.96875 4.804688s-2.26702 4.919737-1.49609 7.796875l-.0215-.08789 2.06055 8.980469c.30906 1.345638 1.65044 2.185968 2.99609 1.876953 1.34564-.309064 2.18597-1.650444 1.87695-2.996094l-2.06054-8.980469c-.007-.02942-.0138-.05873-.0215-.08789-.26765-.998911.0746-2.487741.93555-3.898438.86095-1.410696 2.26643-2.619457 2.8418-2.892578 1.24748-.591672 1.77913-2.082582 1.1875-3.330078-.813-1.22884-2.09643-1.759165-3.33008-1.185547z" font-variant-ligatures="normal" font-variant-position="normal" font-variant-caps="normal" font-variant-numeric="normal" font-variant-alternates="normal" font-variant-east-asian="normal" font-feature-settings="normal" font-variation-settings="normal" text-indent="0" text-align="start" text-decoration-line="none" text-decoration-style="solid" text-decoration-color="#000000" text-transform="none" text-orientation="mixed" white-space="normal" shape-padding="0" shape-margin="0" inline-size="0" isolation="auto" mix-blend-mode="normal" solid-color="#000000" solid-opacity="1" vector-effect="none"/><path id="path1157" d="m280.21094 10.167969c-2.17633-.1753715-4.47514.460831-6.70313 1.675781-2.22798 1.21495-4.42438 3.128723-5.19531 6.005859l.0137-.05273-2.5625 8.808594c-.38626 1.325709.37541 2.713516 1.70117 3.099609 1.32629.38612 2.71437-.376577 3.09961-1.703125l2.5625-8.806641c.005-.01687.0106-.0338.0156-.05078.26766-.99891 1.30686-2.118932 2.75781-2.910156s3.27336-1.135141 3.9082-1.083984c1.37645.111274 2.58242-.914537 2.69336-2.291016.11014-1.375717-.91536-2.580438-2.29101-2.691406z" font-variant-ligatures="normal" font-variant-position="normal" font-variant-caps="normal" font-variant-numeric="normal" font-variant-alternates="normal" font-variant-east-asian="normal" font-feature-settings="normal" font-variation-settings="normal" text-indent="0" text-align="start" text-decoration-line="none" text-decoration-style="solid" text-decoration-color="#000000" text-transform="none" text-orientation="mixed" white-space="normal" shape-padding="0" shape-margin="0" inline-size="0" isolation="auto" mix-blend-mode="normal" solid-color="#000000" solid-opacity="1" vector-effect="none"/><path id="path1161" d="m225.60742 65.359375c-1.16195-.0118-2.37611.142953-3.60937.441406-2.46653.596907-5.08295 1.875507-6.57227 4.455078l-4.72851 7.796875c-.7156 1.180631-.33874 2.717824.84179 3.433594 1.18012.71595 2.71718.339994 3.4336-.839844l4.75586-7.84375c.009-.01553.0184-.03115.0273-.04687.51707-.895595 1.81167-1.706973 3.41797-2.095703 1.6063-.388729 3.45667-.248879 4.05664-.03516 1.30033.462978 2.72983-.215486 3.19336-1.515625.46298-1.300335-.21549-2.729833-1.51563-3.193359-1.02839-.366336-2.13883-.544843-3.30078-.556641z" font-variant-ligatures="normal" font-variant-position="normal" font-variant-caps="normal" font-variant-numeric="normal" font-variant-alternates="normal" font-variant-east-asian="normal" font-feature-settings="normal" font-variation-settings="normal" text-indent="0" text-align="start" text-decoration-line="none" text-decoration-style="solid" text-decoration-color="#000000" text-transform="none" text-orientation="mixed" white-space="normal" shape-padding="0" shape-margin="0" inline-size="0" isolation="auto" mix-blend-mode="normal" solid-color="#000000" solid-opacity="1" vector-effect="none"/></g><path id="path1165" d="m258.07812 119.85547-3.73242 14.20117c-.41623 1.55342-1.67841 2.05132-2.70312 1.55859-2.48801-1.19619-5.47468-.14964-6.67188 2.33789-1.19724 2.48903-.14954 5.47733 2.33985 6.67383 6.72378 3.23306 14.77899-.83788 16.69336-7.98242.003-.008.005-.0156.008-.0234l3.73809-14.22269c.7024-2.67084-.89353-5.40534-3.56445-6.10742-2.68467-.60974-5.50823 1.49901-6.10743 3.56445z" fill="#b9cf2b" font-variant-ligatures="normal" font-variant-position="normal" font-variant-caps="normal" font-variant-numeric="normal" font-variant-alternates="normal" font-variant-east-asian="normal" font-feature-settings="normal" font-variation-settings="normal" text-indent="0" text-align="start" text-decoration-line="none" text-decoration-style="solid" text-decoration-color="#000000" text-transform="none" text-orientation="mixed" white-space="normal" shape-padding="0" shape-margin="0" inline-size="0" isolation="auto" mix-blend-mode="normal" solid-color="#000000" solid-opacity="1" vector-effect="none"/><path id="path1169" d="m206.90039 120.92383-6.68555 13.07226c-.73906 1.42834-2.07713 1.644-2.97265.94336-2.17509-1.70188-5.31805-1.31797-7.01953.85743-1.70054 2.17477-1.31672 5.31622.85742 7.01757 5.87601 4.59721 14.61844 2.3466 18.01758-4.22265.003-.007.007-.0143.01-.0215l6.69727-13.09375c1.25741-2.45884.28323-5.47144-2.17578-6.72851-2.54367-1.22909-5.61374.10379-6.72852 2.17578z" fill="#b9cf2b" font-variant-ligatures="normal" font-variant-position="normal" font-variant-caps="normal" font-variant-numeric="normal" font-variant-alternates="normal" font-variant-east-asian="normal" font-feature-settings="normal" font-variation-settings="normal" text-indent="0" text-align="start" text-decoration-line="none" text-decoration-style="solid" text-decoration-color="#000000" text-transform="none" text-orientation="mixed" white-space="normal" shape-padding="0" shape-margin="0" inline-size="0" isolation="auto" mix-blend-mode="normal" solid-color="#000000" solid-opacity="1" vector-effect="none"/><path id="path1173" d="m170.19531 4.9296875c-.0286.0001586-.0573.0008097-.0859.00195-.002-.0000023-.004-.0000023-.006 0-.18469.0064-.36811.033257-.54688.080078-11.01005.699556-19.19578 11.0799175-16.35352 21.6972655.00035.0013-.00034.0026 0 .0039l27.32032 109.283199c.003.013.006.0261.01.0391.87569 3.2681 2.52934 6.57027 5.35547 9.08593s6.81555 4.12891 11.80274 4.12891c7.73502 0 13.05733-5.16453 15.46289-9.67773.009-.0162.0171-.0325.0254-.0488l11.65234-23.07813 11.61524 23.00781c.001.002.003.004.004.006 2.26971 4.62641 6.46723 8.01969 11.4668 9.26954.003.00066.007.001.01.002 3.6957.90608 7.57586.58129 11.07227-.87305.0402-.0165.0799-.0341.11914-.0527 5.34219-2.55716 8.75649-6.95552 10.01367-11.78711.002-.007.004-.0143.006-.0215l27.33008-109.324215-.0117.04102c3.13169-11.68765-6.2574-21.6705235-16.8457-21.7832038-.004-.0000092-.008-.0000092-.0117 0-8.05689-.049735-15.1315 5.4374968-17.08594 13.2539068l-15.92578 63.699218-6.13477-12.152343c-.002-.0026-.004-.0052-.006-.0078-2.8662-5.622397-8.41499-9.603515-15.76758-9.603515-.009-.00005-.0182-.00005-.0273 0-6.58391.06882-12.44836 3.859298-15.44726 9.61914-.005.0097-.009.0195-.0137.0293l-6.11772 12.116908-15.92578-63.701172c-1.94272-7.768853-8.94506-13.2429573-16.95313-13.2539065zm109.36719 5c7.53386.083664 14.374 6.8708655 12.06445 15.4902345-.003.01364-.007.02732-.01.04102l-27.32398 109.298828c-.89279 3.43117-3.20442 6.5279-7.26758 8.49609-2.5128 1.03234-5.28004 1.26027-7.90039.61914-3.57353-.89468-6.56624-3.31498-8.1875-6.62305-.005-.009-.009-.0182-.0137-.0273l-13.8613-27.45317c-.92487-1.82995-3.53802-1.82995-4.46289 0l-13.85938 27.45313c-1.70889 3.20364-5.5856 7.02539-11.04882 7.02539-3.95577 0-6.55777-1.15527-8.47657-2.86328-1.91622-1.70572-3.1617-4.08084-3.84765-6.63477l-27.32227-109.291012c-.004-.0137-.008-.02738-.0117-.04102-2.0442-7.629033 3.92853-15.18268 12.1875-15.4843751 5.72731.023455 10.68601 3.9017101 12.07618 9.4609371l17.55468 70.21875c.56347 2.244867 3.61184 2.584996 4.65625.519532l9.13281-18.085938c2.18634-4.199174 6.35245-6.874068 11.05274-6.927734 5.65486.0046 9.11795 2.59883 11.29492 6.863281l9.16406 18.150391c1.04324 2.06914 4.09647 1.728613 4.65821-.519532l17.55468-70.21875c1.40102-5.603099 6.42229-9.4997425 12.19727-9.4667965z" font-variant-ligatures="normal" font-variant-position="normal" font-variant-caps="normal" font-variant-numeric="normal" font-variant-alternates="normal" font-variant-east-asian="normal" font-feature-settings="normal" font-variation-settings="normal" text-indent="0" text-align="start" text-decoration-line="none" text-decoration-style="solid" text-decoration-color="#000000" text-transform="none" text-orientation="mixed" white-space="normal" shape-padding="0" shape-margin="0" inline-size="0" isolation="auto" mix-blend-mode="normal" solid-color="#000000" solid-opacity="1" vector-effect="none"/></g></g></svg>