<svg id="svg8" height="512" viewBox="0 0 111 111" width="512" xmlns="http://www.w3.org/2000/svg" xmlns:svg="http://www.w3.org/2000/svg"><g id="layer1"><g id="g1021" transform="matrix(.769 0 0 .769 -106.036 8.11)"><path id="path913" d="m624.21094-30.400391c-.14974.000058-.29948.000709-.44922.002-12.98623.08645-25.54912 4.628701-35.58789 12.867188-24.20263 19.8648528-27.71879 55.588731-7.85352 79.791016l140.05078 170.622997-140.05078 170.61914c-19.86527 24.20229-16.34911 59.92617 7.85352 79.79102 24.20074 19.86665 59.92443 16.35313 79.79101-7.84766l125.75391-153.20508 125.75391 153.20508c19.86658 24.20079 55.59027 27.71431 79.79101 7.84766 24.20323-19.86429 27.72023-55.58823 7.85543-79.79102l-140.05074-170.61914 140.05074-170.623044c19.8648-24.20279 16.3478-59.926728-7.85543-79.791016-10.25232-8.413907-23.13008-12.967048-36.39258-12.867188-16.8241.125131-32.72354 7.716363-43.39843 20.7207036l-125.75391 153.2011744-125.75391-153.2011744c-10.75374-13.1006556-26.80487-20.7027676-43.7539-20.7226566z" fill="#8fc23f" transform="scale(.265)" font-variant-ligatures="normal" font-variant-position="normal" font-variant-caps="normal" font-variant-numeric="normal" font-variant-alternates="normal" font-variant-east-asian="normal" font-feature-settings="normal" font-variation-settings="normal" text-indent="0" text-align="start" text-decoration-line="none" text-decoration-style="solid" text-decoration-color="#000000" text-transform="none" text-orientation="mixed" white-space="normal" shape-padding="0" shape-margin="0" inline-size="0" isolation="auto" mix-blend-mode="normal" solid-color="#000000" solid-opacity="1" vector-effect="none"/><path id="path997" d="m254.33984 103.25195c-2.11615 1.77481-2.39249 4.9292-.61718 7.04493l2.46093 2.93359c.85835 1.00586 1.58945 2.40865 1.6211 3.58594.007 1.18522-.21126 2.17469-2.03907 3.50781-2.23138 1.62711-2.72108 4.75512-1.09374 6.98633 1.62711 2.23138 4.75511 2.72108 6.98632 1.09375 4.12695-3.01002 6.17145-7.56296 6.14649-11.65039-.025-4.08744-1.67088-7.65727-4.23242-10.25l.27343.30078-2.46093-2.93555c-2.04988-2.0553-4.95636-2.32029-7.04493-.61719z" fill="#729b31" font-variant-ligatures="normal" font-variant-position="normal" font-variant-caps="normal" font-variant-numeric="normal" font-variant-alternates="normal" font-variant-east-asian="normal" font-feature-settings="normal" font-variation-settings="normal" text-indent="0" text-align="start" text-decoration-line="none" text-decoration-style="solid" text-decoration-color="#000000" text-transform="none" text-orientation="mixed" white-space="normal" shape-padding="0" shape-margin="0" inline-size="0" isolation="auto" mix-blend-mode="normal" solid-color="#000000" solid-opacity="1" vector-effect="none"/><path id="path1001" d="m179.66602 104.50977-10.51172 12.28906c-.84785 1.05076-2.10334 2.05585-3.28711 2.30664-1.16436.22156-2.17848.18729-3.82031-1.36914-2.00368-1.90001-5.16822-1.81606-7.06836.1875-1.89949 2.00421-1.81467 5.16877.18945 7.06836 3.70704 3.51422 8.5529 4.7016 12.56836 3.9375 4.01546-.76411 7.22992-3.02921 9.3164-6.01758l-.29882.38672 10.51171-12.28906c1.79589-2.09844 1.55015-5.25552-.54882-7.05079-2.21318-1.7499-5.38313-1.3353-7.05078.55079z" fill="#729b31" font-variant-ligatures="normal" font-variant-position="normal" font-variant-caps="normal" font-variant-numeric="normal" font-variant-alternates="normal" font-variant-east-asian="normal" font-feature-settings="normal" font-variation-settings="normal" text-indent="0" text-align="start" text-decoration-line="none" text-decoration-style="solid" text-decoration-color="#000000" text-transform="none" text-orientation="mixed" white-space="normal" shape-padding="0" shape-margin="0" inline-size="0" isolation="auto" mix-blend-mode="normal" solid-color="#000000" solid-opacity="1" vector-effect="none"/><path id="path1005" d="m165.01562-10.542969c-4.00673.02757-7.88307 1.4307237-10.98046 3.9726565-7.44799 6.11310627-8.53707 17.1810215-2.42383 24.6289065l35.75195 43.558594-35.75195 43.556642c-6.11323 7.44788-5.02416 18.5158 2.42383 24.6289 7.44741 6.11366 18.51526 5.02555 24.6289-2.42187l31.33985-38.181641 31.34179 38.181641c6.11364 7.44742 17.1815 8.53553 24.62891 2.42187 7.44719-6.11311 8.53662-17.18123 2.42383-24.6289l-35.75196-43.556642 35.75196-43.558594c6.11309-7.448041 5.02434-18.51597582-2.42383-24.6289065-3.16429-2.5968784-7.14102-4.0034775-11.23438-3.9726565-5.19162.03861-10.10045 2.3835757-13.39453 6.3964846l-31.34179 38.1816404-31.33985-38.1816404c-3.31838-4.0425932-8.27573-6.3903456-13.50586-6.3964846h-.004c-.0449.000022-.0899-.000368-.13477 0zm.14063 5.0000002c3.73729.00556 7.27323 1.6795363 9.64453 4.56835942l33.27149 40.53515638c1.00025 1.218641 2.86498 1.218641 3.86523 0l33.27148-40.53515638c2.35472-2.86855382 5.85723-4.54075692 9.56836-4.56835942h.002c2.92472-.022022 5.76254.9824102 8.02343 2.8378907 5.35937 4.3985859 6.13113 12.2325263 1.73243 17.5917971l-37.05668 45.144531c-.75648.921977-.75648 2.249898 0 3.171875l37.05664 45.142575c4.3987 5.35927 3.62694 13.19517-1.73243 17.59375-5.35881 4.39911-13.19465 3.62836-17.59375-1.73047l-33.27148-40.535152c-1.00025-1.218641-2.86498-1.218641-3.86523 0l-33.27149 40.535152c-4.39909 5.35883-12.23494 6.12958-17.59375 1.73047-5.35923-4.39871-6.13122-12.23459-1.73242-17.59375l37.05664-45.142575c.75648-.921977.75648-2.249898 0-3.171875l-37.05664-45.144531c-4.39881-5.3591578-3.62681-13.1930852 1.73242-17.5917971 2.64003-1.7246976 4.75772-2.8378907 7.94922-2.8378907z" font-variant-ligatures="normal" font-variant-position="normal" font-variant-caps="normal" font-variant-numeric="normal" font-variant-alternates="normal" font-variant-east-asian="normal" font-feature-settings="normal" font-variation-settings="normal" text-indent="0" text-align="start" text-decoration-line="none" text-decoration-style="solid" text-decoration-color="#000000" text-transform="none" text-orientation="mixed" white-space="normal" shape-padding="0" shape-margin="0" inline-size="0" isolation="auto" mix-blend-mode="normal" solid-color="#000000" solid-opacity="1" vector-effect="none"/><g fill="#fff"><path id="path1009" d="m166.07422-5.4160156c-3.72499-.3867803-7.60338 1.372132-10.20899 4.3125-3.47414 3.9204906-4.3569 10.5806886.43165 16.7343746.84796 1.089269 2.41828 1.285123 3.50781.4375 1.08927-.847955 1.28512-2.418284.4375-3.507812-3.67-4.7162626-2.73533-7.9772211-.63477-10.3476564 2.10056-2.37043523 5.69647-3.21194129 7.66016-2.12109373 1.20656.66990886 2.72773.23541438 3.39844-.97070312.67123-1.20701205.23657-2.72963815-.97071-3.40039065-1.15447-.6413189-2.37943-1.007792-3.62109-1.1367187z" font-variant-ligatures="normal" font-variant-position="normal" font-variant-caps="normal" font-variant-numeric="normal" font-variant-alternates="normal" font-variant-east-asian="normal" font-feature-settings="normal" font-variation-settings="normal" text-indent="0" text-align="start" text-decoration-line="none" text-decoration-style="solid" text-decoration-color="#000000" text-transform="none" text-orientation="mixed" white-space="normal" shape-padding="0" shape-margin="0" inline-size="0" isolation="auto" mix-blend-mode="normal" solid-color="#000000" solid-opacity="1" vector-effect="none"/><path id="path1013" d="m255.1582-5.1386719c-2.55065-.2370903-6.25286.4457052-9.09375 3.4882813l-7.74023 9.3886718c-.8782 1.0656897-.72604 2.6415578.33984 3.5195308 1.06569.878197 2.64156.726032 3.51953-.339843l7.55274-9.1660159c1.46488-1.55401808 4.02533-1.99889472 4.95898-1.91210935 1.37478.12782734 2.59289-.88303065 2.72071-2.25781255.12782-1.3747817-.88304-2.5928829-2.25782-2.7207031z" font-variant-ligatures="normal" font-variant-position="normal" font-variant-caps="normal" font-variant-numeric="normal" font-variant-alternates="normal" font-variant-east-asian="normal" font-feature-settings="normal" font-variation-settings="normal" text-indent="0" text-align="start" text-decoration-line="none" text-decoration-style="solid" text-decoration-color="#000000" text-transform="none" text-orientation="mixed" white-space="normal" shape-padding="0" shape-margin="0" inline-size="0" isolation="auto" mix-blend-mode="normal" solid-color="#000000" solid-opacity="1" vector-effect="none"/></g></g></g></svg>