<svg id="svg8" height="512" viewBox="0 0 111 111" width="512" xmlns="http://www.w3.org/2000/svg" xmlns:svg="http://www.w3.org/2000/svg"><g id="layer1"><g id="g1012"><path id="path900" d="m81.059769 6.1690782-25.55862 31.4389668-25.561798-31.4377743c-4.02062-4.9439933-11.287874-5.69253803-16.23187-1.6719217-4.9441202 4.0205019-5.692844 11.28777-1.67232 16.231871l31.929094 39.267106v37.541122c-.000051 6.372392 5.165693 11.538312 11.538087 11.538482 6.372551.00006 11.538537-5.16593 11.538486-11.538482v-37.53993l31.925907-39.273068c4.018795-4.944585 3.268865-12.2107236-1.675094-16.2302811-5.435009-3.81787438-12.019585-3.3332212-16.231872 1.6739093z" fill="#d0ad9a" font-variant-ligatures="normal" font-variant-position="normal" font-variant-caps="normal" font-variant-numeric="normal" font-variant-alternates="normal" font-variant-east-asian="normal" font-feature-settings="normal" font-variation-settings="normal" text-indent="0" text-align="start" text-decoration-line="none" text-decoration-style="solid" text-decoration-color="#000000" text-transform="none" text-orientation="mixed" white-space="normal" shape-padding="0" shape-margin="0" inline-size="0" isolation="auto" mix-blend-mode="normal" solid-color="#000000" solid-opacity="1" vector-effect="none"/><path id="path957-8" d="m61.675837 81.366759a3.8455087 3.8455087 0 0 0 -3.845509 3.84551v11.32171c0 1.14227-1.783247 3.433237-3.025331 3.533071a3.8455087 3.8455087 0 0 0 -3.525554 4.14142 3.8455087 3.8455087 0 0 0 4.141435 3.52556c6.072212-.48807 10.100467-5.62287 10.100467-11.200051v-11.32171a3.8455087 3.8455087 0 0 0 -3.845508-3.84551z" fill="#c09177" font-variant-ligatures="normal" font-variant-position="normal" font-variant-caps="normal" font-variant-numeric="normal" font-variant-alternates="normal" font-variant-east-asian="normal" font-feature-settings="normal" font-variation-settings="normal" text-indent="0" text-align="start" text-decoration-line="none" text-decoration-style="solid" text-decoration-color="#000000" text-transform="none" text-orientation="mixed" white-space="normal" shape-padding="0" shape-margin="0" inline-size="0" isolation="auto" mix-blend-mode="normal" solid-color="#000000" solid-opacity="1" vector-effect="none"/><path id="path1005" d="m19.779297.05273438c-2.584924.227682-5.128786 1.19949472-7.285156 2.95312502-5.7504737 4.6762134-6.6274106 13.1870546-1.951172 18.9374996l31.498047 38.736329v36.859374c-.000063 7.411688 6.049251 13.460748 13.460937 13.460938 7.411863.00007 13.462944-6.04907 13.462891-13.460938v-36.857421l31.494136-38.742188a1.9232573 1.9232573 0 0 0 0-.001953c4.67424-5.751016 3.79521-14.2584725-1.955074-18.9335938a1.9232573 1.9232573 0 0 0 -.107422-.0820312c-6.095466-4.2818152-14.000109-3.70605675-18.808593 2.0097656a1.9232573 1.9232573 0 0 0 -.019532.0234375l-24.066406 29.6035159-24.070312-29.6015628c-2.922722-3.5939495-7.344138-5.28376684-11.652344-4.90429682zm69.144531 3.81640622c2.343289-.214529 4.827642.5213263 7.195313 2.1660156 4.091219 3.3719622 4.704819 9.3556418 1.355468 13.4765628l-31.925781 39.273437a1.9232573 1.9232573 0 0 0 -.43164 1.212891v37.541015c.000038 5.333238-4.282002 9.615288-9.615235 9.615238-5.333102-.00014-9.615279-4.28213-9.615234-9.615238v-37.541015a1.9232573 1.9232573 0 0 0 -.429688-1.214844l-31.929687-39.265625c-3.364809-4.137759-2.7452-10.1625543 1.392578-13.5273436 4.137667-3.3648849 10.162452-2.7450902 13.527344 1.3925781l25.5625 31.4374995a1.9232573 1.9232573 0 0 0 2.984375 0l25.544921-31.4199214c1.806815-2.144084 4.02284-3.3150146 6.384766-3.53125z" font-variant-ligatures="normal" font-variant-position="normal" font-variant-caps="normal" font-variant-numeric="normal" font-variant-alternates="normal" font-variant-east-asian="normal" font-feature-settings="normal" font-variation-settings="normal" text-indent="0" text-align="start" text-decoration-line="none" text-decoration-style="solid" text-decoration-color="#000000" text-transform="none" text-orientation="mixed" white-space="normal" shape-padding="0" shape-margin="0" inline-size="0" isolation="auto" mix-blend-mode="normal" solid-color="#000000" solid-opacity="1" vector-effect="none"/><g fill="#fff"><path id="path1009" d="m21.709739 4.2324754c-2.86526-.2975118-5.84852 1.0554451-7.85276 3.3171787-2.67231 3.0156449-3.35133 8.1386749.33203 12.8720959.65225.837866 1.86014.988517 2.69821.336525.83786-.652248.98851-1.860146.33652-2.698212-2.82297-3.627753-2.10402-6.136085-.48826-7.959426 1.61575-1.8233412 4.38173-2.4706284 5.8922-1.6315475.92809.5152945 2.09817.181081 2.61408-.7466657.51631-.9284347.18197-2.09964-.74667-2.6155834-.88802-.4933031-1.83026-.7751945-2.78535-.874365z" font-variant-ligatures="normal" font-variant-position="normal" font-variant-caps="normal" font-variant-numeric="normal" font-variant-alternates="normal" font-variant-east-asian="normal" font-feature-settings="normal" font-variation-settings="normal" text-indent="0" text-align="start" text-decoration-line="none" text-decoration-style="solid" text-decoration-color="#000000" text-transform="none" text-orientation="mixed" white-space="normal" shape-padding="0" shape-margin="0" inline-size="0" isolation="auto" mix-blend-mode="normal" solid-color="#000000" solid-opacity="1" vector-effect="none"/><path id="path1013" d="m90.233218 4.4458084c-1.961962-.1823701-4.809705.3428368-6.99492 2.683189l-5.953792 7.2217746c-.675512.819729-.55847 2.031888.261406 2.707226.819729.67551 2.03189.558464 2.707225-.261408l5.809574-7.0505069c1.126787-1.195352 3.096288-1.5375515 3.814452-1.4707961 1.057482.098325 1.994453-.679228 2.092773-1.7367114.09832-1.0574833-.679236-1.9944478-1.736718-2.0927672z" font-variant-ligatures="normal" font-variant-position="normal" font-variant-caps="normal" font-variant-numeric="normal" font-variant-alternates="normal" font-variant-east-asian="normal" font-feature-settings="normal" font-variation-settings="normal" text-indent="0" text-align="start" text-decoration-line="none" text-decoration-style="solid" text-decoration-color="#000000" text-transform="none" text-orientation="mixed" white-space="normal" shape-padding="0" shape-margin="0" inline-size="0" isolation="auto" mix-blend-mode="normal" solid-color="#000000" solid-opacity="1" vector-effect="none"/></g></g></g></svg>