<svg id="svg8" height="512" viewBox="0 0 111 111" width="512" xmlns="http://www.w3.org/2000/svg" xmlns:svg="http://www.w3.org/2000/svg"><g id="layer1"><g id="g992" transform="matrix(.769 0 0 .769 -106.004 8.111)"><path id="path915" d="m624.13086-30.414062c-31.31022-.0035-56.69515 25.3753286-56.69922 56.685546-.005 31.31327 25.37814 56.700342 56.69141 56.701172l219.27734.0098-263.0957 320.519524c-8.20565 9.85457-12.56756 24.85302-12.87313 35.97074-.8536 31.05697 19.69636 56.69431 56.98642 56.69431l338.85937.0156c31.31098.00025 56.69355-25.38238 56.69335-56.69336.0002-31.30793-25.3776-56.68929-56.68553-56.69336l-219.2793-.01 262.63473-319.970703.01-.01172c8.7932-11.272193 13.3203-22.920406 13.3203-36.507812 0-17.5805039-9.4842-34.0741831-20.73049-43.826249-11.80864-8.398823-22.97864-12.929375-36.39062-12.867188-112.51801-.0054-225.89022-.01087-338.71893-.0163z" fill="#9a605c" transform="scale(.265)" font-variant-ligatures="normal" font-variant-position="normal" font-variant-caps="normal" font-variant-numeric="normal" font-variant-alternates="normal" font-variant-east-asian="normal" font-feature-settings="normal" font-variation-settings="normal" text-indent="0" text-align="start" text-decoration-line="none" text-decoration-style="solid" text-decoration-color="#000000" text-transform="none" text-orientation="mixed" white-space="normal" shape-padding="0" shape-margin="0" inline-size="0" isolation="auto" mix-blend-mode="normal" solid-color="#000000" solid-opacity="1" vector-effect="none"/><path id="path973" d="m257.90625 116.75977c-.91064 1.67518-1.23434 1.82767-2.2832 2.18164-1.04887.35396-3.19846.53906-6.42188.53906h-17.00976c-2.76142 0-5 2.23858-5 5s2.23858 5 5 5h17.00976c3.40378 0 6.45241.004 9.61914-1.06445 3.16674-1.06869 6.07815-3.58261 7.8711-6.88086 1.31926-2.42595.42207-5.46204-2.00391-6.78125-2.51199-1.29181-5.61444-.0374-6.78125 2.00586z" fill="#7a4c48" font-variant-ligatures="normal" font-variant-position="normal" font-variant-caps="normal" font-variant-numeric="normal" font-variant-alternates="normal" font-variant-east-asian="normal" font-feature-settings="normal" font-variation-settings="normal" text-indent="0" text-align="start" text-decoration-line="none" text-decoration-style="solid" text-decoration-color="#000000" text-transform="none" text-orientation="mixed" white-space="normal" shape-padding="0" shape-margin="0" inline-size="0" isolation="auto" mix-blend-mode="normal" solid-color="#000000" solid-opacity="1" vector-effect="none"/><path id="path977" d="m165.13477-10.546875c-.16527-.000032-.33014.01632-.49219.04883-9.40411.26736-17.00853 7.9824658-17.00977 17.4492189-.001 9.6361011 7.86383 17.5016981 17.5 17.5019531l52.73047.002-66.24609 80.705083c-.002.003-.003.007-.006.01l-.004.004c-2.68284 3.22959-3.87568 7.50691-3.97265 11.03515-.12859 4.67825 1.3716 9.114 4.43164 12.36329 3.06003 3.24928 7.63844 5.20507 13.14453 5.20507l89.65625.004c9.63548.00008 17.50006-7.86452 17.5-17.5.00006-9.63454-7.8635-17.498745-17.49805-17.500001l-52.73047-.0039 66.06836-80.492188c.0373-.04239.0731-.08604.10742-.130859 2.58432-3.31289 4.05274-7.046961 4.05274-11.1972658 0-5.5506286-2.84162-10.445854-6.34571-13.484375-.0607-.052492-.12395-.1020282-.18945-.1484374-3.38185-2.4053754-6.96515-3.8833568-11.07812-3.8671878h-.0117c-29.76689-.000894-59.75873-.0024-89.60742-.0039zm0 5c29.8526.0015 59.84836.00301 89.61914.00391.004.0000091.008.0000091.0117 0 2.94028-.013633 5.24997.9014157 8.0625 2.8828126 2.4112 2.1367161 4.53907 5.9095885 4.53907 9.6171874 0 3.0367708-.92567 5.464281-2.99024 8.113281-.002.0026-.002.0053-.004.0078l-69.45313 84.613281c-1.33823 1.631423-.17843 4.084703 1.93164 4.085933l58.01758.004c6.93257.0009 12.49809 5.56744 12.49805 12.5.00004 6.93326-5.56675 12.50006-12.5 12.5l-89.65625-.004c-4.36024 0-7.43523-1.4362-9.50391-3.63281-2.06867-2.19661-3.17149-5.25991-3.07422-8.79883.0646-2.35013 1.17644-6.00274 2.82813-7.98632.003-.005.007-.009.01-.0137l69.61133-84.804683c1.33823-1.63142.17843-4.084713-1.93164-4.085938l-58.01758-.002c-6.93376-.000183-12.50083-5.568115-12.5-12.5019533.00091-6.93307899 5.56888-12.4988219 12.50196-12.4980469z" font-variant-ligatures="normal" font-variant-position="normal" font-variant-caps="normal" font-variant-numeric="normal" font-variant-alternates="normal" font-variant-east-asian="normal" font-feature-settings="normal" font-variation-settings="normal" text-indent="0" text-align="start" text-decoration-line="none" text-decoration-style="solid" text-decoration-color="#000000" text-transform="none" text-orientation="mixed" white-space="normal" shape-padding="0" shape-margin="0" inline-size="0" isolation="auto" mix-blend-mode="normal" solid-color="#000000" solid-opacity="1" vector-effect="none"/><g fill="#fff"><path id="path981" d="m166.13086-5.4746094c-4.16497-.1061529-7.63498 1.3354161-9.91992 3.7207032-2.28494 2.38528698-3.36719 5.5784299-3.36719 8.78125 0 1.380713 1.11929 2.5000028 2.5 2.5 1.38071.0000028 2.5-1.119287 2.5-2.5 0-2.083231.69508-3.9844214 1.97852-5.3242188 1.28343-1.33979745 3.17498-2.25631847 6.18164-2.1796875.0208.00091154.0417.001563.0625.001953h18.58789c1.38071.00000276 2.5-1.119287 2.5-2.5s-1.11929-2.5000028-2.5-2.5z" font-variant-ligatures="normal" font-variant-position="normal" font-variant-caps="normal" font-variant-numeric="normal" font-variant-alternates="normal" font-variant-east-asian="normal" font-feature-settings="normal" font-variation-settings="normal" text-indent="0" text-align="start" text-decoration-line="none" text-decoration-style="solid" text-decoration-color="#000000" text-transform="none" text-orientation="mixed" white-space="normal" shape-padding="0" shape-margin="0" inline-size="0" isolation="auto" mix-blend-mode="normal" solid-color="#000000" solid-opacity="1" vector-effect="none"/><path id="path985" d="m223.52539 25.982422-12.82031 15.472656c-.88006 1.063625-.73141 2.639254.33203 3.519531 1.06311.88052 2.63868.732755 3.51953-.330078l12.81836-15.472656c.88184-1.063406.73402-2.640477-.33008-3.521484-1.13945-.82598-2.68702-.640169-3.51953.332031z" font-variant-ligatures="normal" font-variant-position="normal" font-variant-caps="normal" font-variant-numeric="normal" font-variant-alternates="normal" font-variant-east-asian="normal" font-feature-settings="normal" font-variation-settings="normal" text-indent="0" text-align="start" text-decoration-line="none" text-decoration-style="solid" text-decoration-color="#000000" text-transform="none" text-orientation="mixed" white-space="normal" shape-padding="0" shape-margin="0" inline-size="0" isolation="auto" mix-blend-mode="normal" solid-color="#000000" solid-opacity="1" vector-effect="none"/></g></g></g></svg>