<?xml version="1.0" encoding="UTF-8"?>
<svg xmlns="http://www.w3.org/2000/svg" xmlns:xlink="http://www.w3.org/1999/xlink" width="512px" height="512px" viewBox="0 0 111 111" version="1.1">
<g id="layer1">
<path style=" stroke:none;fill-rule:nonzero;fill:rgb(99.607843%,84.705882%,51.372549%);fill-opacity:1;" d="M 27.433594 1.917969 C 21.074219 1.917969 15.914062 7.074219 15.914062 13.4375 L 15.914062 97.617188 C 15.914062 103.980469 21.074219 109.136719 27.433594 109.136719 L 83.699219 109.136719 C 90.0625 109.136719 95.21875 103.980469 95.21875 97.617188 C 95.21875 91.253906 90.0625 86.097656 83.699219 86.097656 L 39.066406 86.097656 L 39.066406 67.050781 L 73.625 67.050781 C 79.988281 67.050781 85.144531 61.894531 85.144531 55.53125 C 85.144531 49.171875 79.988281 44.011719 73.625 44.011719 L 39.066406 44.011719 L 39.066406 24.957031 L 83.699219 24.957031 C 90.0625 24.957031 95.21875 19.800781 95.21875 13.4375 C 95.21875 7.074219 90.0625 1.917969 83.699219 1.917969 Z M 27.433594 1.917969 "/>
<path style=" stroke:none;fill-rule:nonzero;fill:rgb(99.607843%,78.039216%,30.588235%);fill-opacity:1;" d="M 85.71875 108.589844 L 64.148438 108.589844 C 62.027344 108.589844 60.308594 106.871094 60.308594 104.75 C 60.308594 102.628906 62.027344 100.910156 64.148438 100.910156 L 85.71875 100.910156 C 87.839844 100.910156 89.558594 102.628906 89.558594 104.75 C 89.558594 106.871094 87.839844 108.589844 85.71875 108.589844 Z M 85.71875 108.589844 "/>
<path style=" stroke:none;fill-rule:nonzero;fill:rgb(99.607843%,78.039216%,30.588235%);fill-opacity:1;" d="M 77.289062 66.316406 L 64.425781 66.316406 C 62.304688 66.316406 60.585938 64.597656 60.585938 62.476562 C 60.585938 60.355469 62.304688 58.636719 64.425781 58.636719 L 77.289062 58.636719 C 79.410156 58.636719 81.128906 60.355469 81.128906 62.476562 C 81.128906 64.597656 79.410156 66.316406 77.289062 66.316406 Z M 77.289062 66.316406 "/>
<path style=" stroke:none;fill-rule:nonzero;fill:rgb(99.607843%,78.039216%,30.588235%);fill-opacity:1;" d="M 86.269531 24.65625 L 65.917969 24.65625 C 63.796875 24.65625 62.078125 22.9375 62.078125 20.816406 C 62.078125 18.695312 63.796875 16.976562 65.917969 16.976562 L 86.269531 16.976562 C 88.390625 16.976562 90.109375 18.695312 90.109375 20.816406 C 90.109375 22.9375 88.390625 24.65625 86.269531 24.65625 Z M 86.269531 24.65625 "/>
<path style=" stroke:none;fill-rule:nonzero;fill:rgb(0%,0%,0%);fill-opacity:1;" d="M 83.699219 111.058594 L 27.433594 111.058594 C 20.023438 111.058594 13.996094 105.027344 13.996094 97.617188 L 13.996094 13.4375 C 13.996094 6.027344 20.023438 0 27.433594 0 L 83.699219 0 C 87.289062 0 90.664062 1.394531 93.203125 3.933594 C 95.742188 6.472656 97.136719 9.847656 97.136719 13.4375 C 97.136719 17.027344 95.742188 20.402344 93.203125 22.941406 C 90.664062 25.480469 87.289062 26.878906 83.699219 26.878906 L 40.984375 26.878906 L 40.984375 42.09375 L 73.625 42.09375 C 81.035156 42.09375 87.066406 48.121094 87.066406 55.53125 C 87.066406 62.945312 81.035156 68.972656 73.625 68.972656 L 40.984375 68.972656 L 40.984375 84.175781 L 83.699219 84.175781 C 91.109375 84.175781 97.136719 90.207031 97.136719 97.617188 C 97.136719 105.027344 91.109375 111.058594 83.699219 111.058594 Z M 27.433594 3.839844 C 22.140625 3.839844 17.835938 8.144531 17.835938 13.4375 L 17.835938 97.617188 C 17.835938 102.910156 22.140625 107.21875 27.433594 107.21875 L 83.699219 107.21875 C 88.992188 107.21875 93.296875 102.910156 93.296875 97.617188 C 93.296875 92.324219 88.992188 88.015625 83.699219 88.015625 L 39.066406 88.015625 C 38.003906 88.015625 37.144531 87.15625 37.144531 86.097656 L 37.144531 67.054688 C 37.144531 65.992188 38.003906 65.132812 39.066406 65.132812 L 73.625 65.132812 C 78.917969 65.132812 83.226562 60.828125 83.226562 55.53125 C 83.226562 50.238281 78.917969 45.933594 73.625 45.933594 L 39.066406 45.933594 C 38.003906 45.933594 37.144531 45.074219 37.144531 44.011719 L 37.144531 24.957031 C 37.144531 23.898438 38.003906 23.039062 39.066406 23.039062 L 83.699219 23.039062 C 86.261719 23.039062 88.671875 22.039062 90.488281 20.226562 C 92.300781 18.414062 93.296875 16.003906 93.296875 13.4375 C 93.296875 10.875 92.300781 8.464844 90.488281 6.648438 C 88.671875 4.835938 86.261719 3.839844 83.699219 3.839844 Z M 27.433594 3.839844 "/>
<path style=" stroke:none;fill-rule:nonzero;fill:rgb(100%,100%,100%);fill-opacity:1;" d="M 20.078125 27.621094 C 19.015625 27.621094 18.15625 26.761719 18.15625 25.703125 L 18.15625 12.785156 C 18.15625 9.46875 20.398438 7.160156 21.730469 6.082031 C 22.554688 5.414062 23.765625 5.542969 24.429688 6.367188 C 25.097656 7.191406 24.96875 8.402344 24.144531 9.066406 C 23.5 9.589844 21.996094 10.996094 21.996094 12.785156 L 21.996094 25.703125 C 22 26.761719 21.136719 27.621094 20.078125 27.621094 Z M 20.078125 27.621094 "/>
</g>
</svg>
