<svg id="svg8" height="512" viewBox="0 0 111 111" width="512" xmlns="http://www.w3.org/2000/svg" xmlns:svg="http://www.w3.org/2000/svg"><g id="layer1"><g id="g912"><path id="path922-9" d="m83.913511 1.9088586a11.457448 11.457448 0 0 0 -11.45754 11.4575394v31.058943h-33.911576v-30.293577a11.457448 11.457448 0 0 0 -11.457144-11.4575403 11.457448 11.457448 0 0 0 -11.457547 11.4575403v83.501839a11.457448 11.457448 0 0 0 11.457547 11.457537 11.457448 11.457448 0 0 0 11.457144-11.457537v-30.293579h33.911576v29.529795a11.457448 11.457448 0 0 0 11.45754 11.457531 11.457448 11.457448 0 0 0 11.457143-11.457531v-83.503421a11.457448 11.457448 0 0 0 -11.457143-11.4575394z" fill="#e3482c" font-variant-ligatures="normal" font-variant-position="normal" font-variant-caps="normal" font-variant-numeric="normal" font-variant-alternates="normal" font-variant-east-asian="normal" font-feature-settings="normal" font-variation-settings="normal" text-indent="0" text-align="start" text-decoration-line="none" text-decoration-style="solid" text-decoration-color="#000000" text-transform="none" text-orientation="mixed" white-space="normal" shape-padding="0" shape-margin="0" inline-size="0" isolation="auto" mix-blend-mode="normal" solid-color="#000000" solid-opacity="1" vector-effect="none"/><path id="path1044-0" d="m33.88302 82.371297a3.8191496 3.8191496 0 0 0 -3.819149 3.819149v10.678701c0 1.955328-1.076489 3.696803-1.057721 3.681893a3.8191496 3.8191496 0 0 0 -.614647 5.36621 3.8191496 3.8191496 0 0 0 5.364714.61613c2.989767-2.37429 3.945953-5.90077 3.945953-9.664233v-10.678701a3.8191496 3.8191496 0 0 0 -3.81915-3.819149z" fill="#c1331a" font-variant-ligatures="normal" font-variant-position="normal" font-variant-caps="normal" font-variant-numeric="normal" font-variant-alternates="normal" font-variant-east-asian="normal" font-feature-settings="normal" font-variation-settings="normal" text-indent="0" text-align="start" text-decoration-line="none" text-decoration-style="solid" text-decoration-color="#000000" text-transform="none" text-orientation="mixed" white-space="normal" shape-padding="0" shape-margin="0" inline-size="0" isolation="auto" mix-blend-mode="normal" solid-color="#000000" solid-opacity="1" vector-effect="none"/><path id="path1032-2" d="m78.440219 6.0827406c-1.398993.918854-2.248609 2.296564-2.853919 3.7057687-.60531 1.4092027-.947328 3.3899837-.947328 4.7466417v.003l.01492 12.631538c.0016 1.05463.857928 1.908242 1.912558 1.906591 1.054047-.0016 1.907418-.857018 1.906591-1.911066l-.01492-12.631559c.000234-.630497.225751-2.277436.638514-3.238377.412978-.961443 1.032832-1.7542737 1.439641-2.0214634.881405-.5785333 1.127164-1.7619185.549002-2.643567-.82484-.9281521-1.575971-1.249191-2.645059-.547507z" fill="#fff" font-variant-ligatures="normal" font-variant-position="normal" font-variant-caps="normal" font-variant-numeric="normal" font-variant-alternates="normal" font-variant-east-asian="normal" font-feature-settings="normal" font-variation-settings="normal" text-indent="0" text-align="start" text-decoration-line="none" text-decoration-style="solid" text-decoration-color="#000000" text-transform="none" text-orientation="mixed" white-space="normal" shape-padding="0" shape-margin="0" inline-size="0" isolation="auto" mix-blend-mode="normal" solid-color="#000000" solid-opacity="1" vector-effect="none"/><path id="path1032" d="m22.520303 6.2986133a1.9095709 1.9095709 0 0 0 -1.008494.3132894c-1.398993.9188537-2.248609 2.2965637-2.853919 3.7057683-.60531 1.409204-.947328 2.860817-.947328 4.217475a1.9097618 1.9097618 0 0 0 0 .003l.01492 12.631538a1.9095709 1.9095709 0 0 0 1.912558 1.906591 1.9095709 1.9095709 0 0 0 1.906591-1.911066l-.01492-12.631559c.000234-.630497.225751-1.748269.638514-2.70921.412978-.961443 1.032832-1.754274 1.439641-2.0214638a1.9095709 1.9095709 0 0 0 .549002-2.6435671 1.9095709 1.9095709 0 0 0 -1.636565-.8608004z" fill="#fff" font-variant-ligatures="normal" font-variant-position="normal" font-variant-caps="normal" font-variant-numeric="normal" font-variant-alternates="normal" font-variant-east-asian="normal" font-feature-settings="normal" font-variation-settings="normal" text-indent="0" text-align="start" text-decoration-line="none" text-decoration-style="solid" text-decoration-color="#000000" text-transform="none" text-orientation="mixed" white-space="normal" shape-padding="0" shape-margin="0" inline-size="0" isolation="auto" mix-blend-mode="normal" solid-color="#000000" solid-opacity="1" vector-effect="none"/><path id="path1044" d="m90.683167 82.371297a3.8191494 3.8191494 0 0 0 -3.819149 3.819149v10.678701c0 1.955328-1.076489 3.696803-1.057721 3.681893a3.8191494 3.8191494 0 0 0 -.614647 5.36621 3.8191494 3.8191494 0 0 0 5.364714.61613c2.989767-2.37429 3.945953-5.90077 3.945953-9.664233v-10.678701a3.8191494 3.8191494 0 0 0 -3.81915-3.819149z" fill="#c1331a" font-variant-ligatures="normal" font-variant-position="normal" font-variant-caps="normal" font-variant-numeric="normal" font-variant-alternates="normal" font-variant-east-asian="normal" font-feature-settings="normal" font-variation-settings="normal" text-indent="0" text-align="start" text-decoration-line="none" text-decoration-style="solid" text-decoration-color="#000000" text-transform="none" text-orientation="mixed" white-space="normal" shape-padding="0" shape-margin="0" inline-size="0" isolation="auto" mix-blend-mode="normal" solid-color="#000000" solid-opacity="1" vector-effect="none"/><path id="path1048" d="m83.913129.00000013c-7.359867-.00005889-13.367084 6.00715777-13.367023 13.36702287v29.149359h-30.092211v-28.384037c.000058-7.3596874-6.007336-13.36682738-13.367023-13.36702315-7.359869-.00006378-13.367082 6.00715465-13.367023 13.36702315v83.500632c-.000054 7.359863 6.007158 13.367083 13.367023 13.367023 7.359683-.0002 13.367077-6.00734 13.367023-13.367023v-28.384041h30.092211v27.620211c-.000053 7.359863 6.007163 13.368573 13.367023 13.368513 7.359684-.0002 13.367076-6.00884 13.367023-13.368513v-83.502124c.000061-7.3596863-6.007339-13.36682664-13.367023-13.36702287zm0 3.81914957c5.295694.0001413 9.547919 4.2521791 9.547874 9.5478733v83.502124c.000038 5.295683-4.25218 9.549213-9.547874 9.549363-5.295823.00004-9.547912-4.25354-9.547873-9.549363v-29.529785a1.9097618 1.9097618 0 0 0 -1.909575-1.909575h-33.911361a1.9097618 1.9097618 0 0 0 -1.909575 1.909575v30.293615c.000039 5.295683-4.252181 9.547733-9.547873 9.547873-5.295826.00005-9.547913-4.25205-9.547874-9.547873v-83.500632c-.000042-5.295829 4.252046-9.5479195 9.547874-9.5478737 5.295694.0001406 9.547916 4.2521791 9.547873 9.5478737v30.293612a1.9097618 1.9097618 0 0 0 1.909575 1.909575h33.911361a1.9097618 1.9097618 0 0 0 1.909575-1.909575v-31.058934c-.000039-5.2958256 4.25205-9.5479161 9.547873-9.5478733z" font-variant-ligatures="normal" font-variant-position="normal" font-variant-caps="normal" font-variant-numeric="normal" font-variant-alternates="normal" font-variant-east-asian="normal" font-feature-settings="normal" font-variation-settings="normal" text-indent="0" text-align="start" text-decoration-line="none" text-decoration-style="solid" text-decoration-color="#000000" text-transform="none" text-orientation="mixed" white-space="normal" shape-padding="0" shape-margin="0" inline-size="0" isolation="auto" mix-blend-mode="normal" solid-color="#000000" solid-opacity="1" vector-effect="none"/></g></g></svg>