<svg id="svg8" height="512" viewBox="0 0 111 111" width="512" xmlns="http://www.w3.org/2000/svg" xmlns:svg="http://www.w3.org/2000/svg"><g id="layer1"><g id="g1122" transform="matrix(.769 0 0 .769 -321.175 13.77)"><path id="path1030" d="m455.0218-15.405158c-8.28416.000222-14.99966 6.7159584-14.9996 15.00011796v109.32201004c-.00006 8.28416 6.71544 14.99989 14.9996 15.00011 8.28437.00008 15.00018-6.71575 15.00013-15.00011v-33.461008l43.96888 43.164288c5.91216 5.80336 15.40954 5.71498 21.21267-.19741 5.80253-5.91135 5.71508-15.4071-.19534-21.210587l-43.85778-43.054215 43.95544-43.955456c5.85785-5.857862 5.85785-15.3553132 0-21.213175-6.66186-5.703903-15.4142-5.626719-21.21265 0l-43.87122 43.871223v-33.26567004c.00005-8.28436866-6.71576-15.00018896-15.00013-15.00011796z" fill="#dd527c" font-variant-ligatures="normal" font-variant-position="normal" font-variant-caps="normal" font-variant-numeric="normal" font-variant-alternates="normal" font-variant-east-asian="normal" font-feature-settings="normal" font-variation-settings="normal" text-indent="0" text-align="start" text-decoration-line="none" text-decoration-style="solid" text-decoration-color="#000000" text-transform="none" text-orientation="mixed" white-space="normal" shape-padding="0" shape-margin="0" inline-size="0" isolation="auto" mix-blend-mode="normal" solid-color="#000000" solid-opacity="1" vector-effect="none"/><path id="path1103" d="m446.42039-9.4535362c-1.67479 1.8444306-3.7407 4.6414758-3.7407 8.2250206v19.5273436c0 1.380713 1.11929 2.500003 2.5 2.5 1.38071.000003 2.5-1.119287 2.5-2.5v-19.5273436c0-1.2441661 1.15481-3.4462678 2.44187-4.8636924.92813-1.0220771.85206-2.6030099-.16992-3.53125-1.08907-.902988-2.66073-.757758-3.53125.1699218z" fill="#fff" font-variant-ligatures="normal" font-variant-position="normal" font-variant-caps="normal" font-variant-numeric="normal" font-variant-alternates="normal" font-variant-east-asian="normal" font-feature-settings="normal" font-variation-settings="normal" text-indent="0" text-align="start" text-decoration-line="none" text-decoration-style="solid" text-decoration-color="#000000" text-transform="none" text-orientation="mixed" white-space="normal" shape-padding="0" shape-margin="0" inline-size="0" isolation="auto" mix-blend-mode="normal" solid-color="#000000" solid-opacity="1" vector-effect="none"/><path id="path1107" d="m515.57812-9.1210938-8.42968 8.48437505c-.97283.97949917-.96759 2.56212895.0117 3.53515625.9795.9728289 2.56212.9675827 3.53515-.011719l8.42969-8.484375c.97283-.9794992.96759-2.562129-.0117-3.5351563-1.06477-.9453742-2.60929-.8935622-3.53516.011719z" fill="#fff" font-variant-ligatures="normal" font-variant-position="normal" font-variant-caps="normal" font-variant-numeric="normal" font-variant-alternates="normal" font-variant-east-asian="normal" font-feature-settings="normal" font-variation-settings="normal" text-indent="0" text-align="start" text-decoration-line="none" text-decoration-style="solid" text-decoration-color="#000000" text-transform="none" text-orientation="mixed" white-space="normal" shape-padding="0" shape-margin="0" inline-size="0" isolation="auto" mix-blend-mode="normal" solid-color="#000000" solid-opacity="1" vector-effect="none"/><path id="path1111" d="m497.93555 92.679688c-1.92912 1.975644-1.89152 5.141047.084 7.070312l16.83594 16.43555c3.26184 3.32418 8.03439 4.91425 12.71094 4.49218 2.75082-.24773 4.77973-2.67892 4.53125-5.42968-.24773-2.75083-2.67893-4.77974-5.42969-4.53125-2.49892.22553-3.22675-.0604-4.67383-1.53516l-16.9883-16.585937c-2.1405-1.873427-5.23809-1.736659-7.07031.08398z" fill="#d1295c" font-variant-ligatures="normal" font-variant-position="normal" font-variant-caps="normal" font-variant-numeric="normal" font-variant-alternates="normal" font-variant-east-asian="normal" font-feature-settings="normal" font-variation-settings="normal" text-indent="0" text-align="start" text-decoration-line="none" text-decoration-style="solid" text-decoration-color="#000000" text-transform="none" text-orientation="mixed" white-space="normal" shape-padding="0" shape-margin="0" inline-size="0" isolation="auto" mix-blend-mode="normal" solid-color="#000000" solid-opacity="1" vector-effect="none"/><path id="path1115" d="m455.02148-17.904297c-9.63524.000258-17.50007 7.864758-17.5 17.50000012v109.32031688c-.00007 9.63524 7.86476 17.50169 17.5 17.50195 9.63549.00009 17.50006-7.86648 17.5-17.50195v-27.503911l39.71875 38.992191c6.87639 6.74984 17.99847 6.64619 24.74805-.23047 6.74889-6.87546 6.64586-17.9961-.22851-24.746096l-42.05665-41.287109 42.16993-42.169922c6.81322-6.813233 6.81322-17.9367667 0-24.75-.0452-.04541-.0921-.08906-.14063-.130859-7.49204-6.41471-17.88753-6.388868-24.58008.105468-.009.0084-.0183.01686-.0273.02539l-39.60356 39.60547v-27.23046888c.00006-9.63547812-7.86451-17.50008212-17.5-17.50000012zm0 5c6.93326-.000059 12.50005 5.56674 12.5 12.50000012v33.26562488c.00087 2.226594 2.69259 3.341472 4.26758 1.767578l43.84571-43.8457029c4.88546-4.7407681 11.95642-4.8720581 17.77539.0625 4.82042 4.9079314 4.80276 12.7148071-.0723 17.5898438l-43.95505 43.9550781c-.98209.982424-.97507 2.577041.0156 3.550781l43.85742 43.054688c4.94647 4.856976 5.02024 12.728536.16406 17.675786-4.85668 4.94812-12.7298 5.02093-17.67773.16406l-43.96872-43.164065c-1.58127-1.55262-4.25123-.432882-4.25196 1.783203v33.460942c.00005 6.93325-5.56674 12.50202-12.5 12.50195-6.93307-.00019-12.50005-5.56888-12.5-12.50195v-109.32031688c-.00005-6.93307782 5.56693-12.49981412 12.5-12.50000012z" font-variant-ligatures="normal" font-variant-position="normal" font-variant-caps="normal" font-variant-numeric="normal" font-variant-alternates="normal" font-variant-east-asian="normal" font-feature-settings="normal" font-variation-settings="normal" text-indent="0" text-align="start" text-decoration-line="none" text-decoration-style="solid" text-decoration-color="#000000" text-transform="none" text-orientation="mixed" white-space="normal" shape-padding="0" shape-margin="0" inline-size="0" isolation="auto" mix-blend-mode="normal" solid-color="#000000" solid-opacity="1" vector-effect="none"/></g></g></svg>