<svg id="svg8" height="512" viewBox="0 0 111 111" width="512" xmlns="http://www.w3.org/2000/svg" xmlns:svg="http://www.w3.org/2000/svg"><g id="layer1"><g id="g971" transform="matrix(.769 0 0 .769 -106.014 8.112)"><path id="path902" d="m624.14648-30.414062a56.692913 56.692913 0 0 0 -56.70117 56.685546 56.692913 56.692913 0 0 0 56.69336 56.701172l112.88477.0039v356.496104a56.692913 56.692913 0 0 0 56.6914 56.69336 56.692913 56.692913 0 0 0 56.69336-56.69336v-356.490238l112.88477.0039a56.692913 56.692913 0 0 0 56.69143-56.691406 56.692913 56.692913 0 0 0 -56.68557-56.69336z" fill="#30b1ad" transform="scale(.265)" font-variant-ligatures="normal" font-variant-position="normal" font-variant-caps="normal" font-variant-numeric="normal" font-variant-alternates="normal" font-variant-east-asian="normal" font-feature-settings="normal" font-variation-settings="normal" text-indent="0" text-align="start" text-decoration-line="none" text-decoration-style="solid" text-decoration-color="#000000" text-transform="none" text-orientation="mixed" white-space="normal" shape-padding="0" shape-margin="0" inline-size="0" isolation="auto" mix-blend-mode="normal" solid-color="#000000" solid-opacity="1" vector-effect="none"/><path id="path957" d="m218.33203 95.242188a5 5 0 0 0 -5 5.000002v14.7207c0 1.48519-2.31861 4.46395-3.93359 4.59375a5 5 0 0 0 -4.58399 5.38477 5 5 0 0 0 5.38477 4.58398c7.8952-.63458 13.13281-7.31095 13.13281-14.5625v-14.7207a5 5 0 0 0 -5-5.000002z" fill="#258885" font-variant-ligatures="normal" font-variant-position="normal" font-variant-caps="normal" font-variant-numeric="normal" font-variant-alternates="normal" font-variant-east-asian="normal" font-feature-settings="normal" font-variation-settings="normal" text-indent="0" text-align="start" text-decoration-line="none" text-decoration-style="solid" text-decoration-color="#000000" text-transform="none" text-orientation="mixed" white-space="normal" shape-padding="0" shape-margin="0" inline-size="0" isolation="auto" mix-blend-mode="normal" solid-color="#000000" solid-opacity="1" vector-effect="none"/><path id="path961" d="m165.13867-10.546875c-9.63548-.0014-17.5007 7.862567-17.50195 17.4980469-.001 9.6364071 7.86359 17.5020301 17.5 17.5019531l27.36719.002v91.822265c-.00008 9.63525 7.86475 17.49975 17.5 17.5 9.63548.00008 17.50007-7.86452 17.5-17.5v-91.822312l27.36718.002c9.63505-.00025 17.49979-7.864953 17.5-17.4999998.00008-9.6345526-7.86349-17.4987542-17.49804-17.5000002zm0 5 89.73438.00391c6.93256.0008967 12.4981 5.56743322 12.49804 12.5-.00015 6.932932-5.56706 12.49982-12.5 12.5l-29.86718-.002a2.50025 2.50025 0 0 0 -2.5 2.5v94.322265c.00005 6.93325-5.56675 12.50006-12.5 12.5-6.93308-.00018-12.50006-5.56692-12.5-12.5v-94.322222a2.50025 2.50025 0 0 0 -2.5-2.5l-29.86719-.002c-6.93394.000056-12.50101-5.568018-12.5-12.5019531.0009-6.93325093 5.5687-12.4990592 12.50195-12.4980469z" font-variant-ligatures="normal" font-variant-position="normal" font-variant-caps="normal" font-variant-numeric="normal" font-variant-alternates="normal" font-variant-east-asian="normal" font-feature-settings="normal" font-variation-settings="normal" text-indent="0" text-align="start" text-decoration-line="none" text-decoration-style="solid" text-decoration-color="#000000" text-transform="none" text-orientation="mixed" white-space="normal" shape-padding="0" shape-margin="0" inline-size="0" isolation="auto" mix-blend-mode="normal" solid-color="#000000" solid-opacity="1" vector-effect="none"/><path id="path965" d="m165.04102-5.4160156c-5.80996 0-11.55998 4.50883633-12.06836 10.8339844a2.499995 2.499995 0 0 0 2.29101 2.6914062 2.499995 2.499995 0 0 0 2.69336-2.2910156c.256-3.1850493 4.1572-6.23437503 7.08399-6.23437502h10.48828a2.499995 2.499995 0 0 0 2.5-2.49999998 2.499995 2.499995 0 0 0 -2.5-2.5z" fill="#fff" font-variant-ligatures="normal" font-variant-position="normal" font-variant-caps="normal" font-variant-numeric="normal" font-variant-alternates="normal" font-variant-east-asian="normal" font-feature-settings="normal" font-variation-settings="normal" text-indent="0" text-align="start" text-decoration-line="none" text-decoration-style="solid" text-decoration-color="#000000" text-transform="none" text-orientation="mixed" white-space="normal" shape-padding="0" shape-margin="0" inline-size="0" isolation="auto" mix-blend-mode="normal" solid-color="#000000" solid-opacity="1" vector-effect="none"/></g></g></svg>