<svg id="svg8" height="512" viewBox="0 0 111 111" width="512" xmlns="http://www.w3.org/2000/svg" xmlns:svg="http://www.w3.org/2000/svg"><g id="layer1"><g id="g989" transform="matrix(.775 0 0 .775 -221.476 8.16)"><path id="path901" d="m307-6.9003906c-7.65478 3.1697852-11.29003 11.9452883-8.11914 19.5996096l44.86328 108.320311c5.11593 12.34377 22.60087 12.34377 27.7168 0l44.87109-108.316405c3.17112-7.6537828-.46317-16.4290626-8.11719-19.5996094-7.65378-3.1711166-16.42906.4631696-19.59961 8.1171875l-31.01171 74.8613279-31.00586-74.863281c-3.58399-7.7329956-12.04682-11.1782246-19.59766-8.1191406z" fill="#50b86b" font-variant-ligatures="normal" font-variant-position="normal" font-variant-caps="normal" font-variant-numeric="normal" font-variant-alternates="normal" font-variant-east-asian="normal" font-feature-settings="normal" font-variation-settings="normal" text-indent="0" text-align="start" text-decoration-line="none" text-decoration-style="solid" text-decoration-color="#000000" text-transform="none" text-orientation="mixed" white-space="normal" shape-padding="0" shape-margin="0" inline-size="0" isolation="auto" mix-blend-mode="normal" solid-color="#000000" solid-opacity="1" vector-effect="none"/><path id="path970" d="m312.46289-5.3222656c-3.97959.062898-7.33103 1.868813-9.4043 4.51171872-2.76346 3.52273878-3.55453 8.34648778-1.80273 12.49218788.00056.0013.001.0026.002.0039l1.20508 2.902344c.5297 1.274939 1.99258 1.879154 3.26758 1.349609 1.2757-.528934 1.88088-1.992038 1.35156-3.267578l-1.21289-2.9179689c-.002-.00521-.004-.010423-.006-.015625-.9676-2.2874886-.511-5.3704656 1.12891-7.4609375 1.6399-2.09047186 4.16425-3.3754747 8.30078-2.2285156 1.32995.36838877 2.70685-.41054344 3.07617-1.7402344.36964-1.3305756-.40956-2.7088288-1.74023-3.078125-1.4419-.3998019-2.83949-.5717471-4.16602-.5507812z" fill="#fff" font-variant-ligatures="normal" font-variant-position="normal" font-variant-caps="normal" font-variant-numeric="normal" font-variant-alternates="normal" font-variant-east-asian="normal" font-feature-settings="normal" font-variation-settings="normal" text-indent="0" text-align="start" text-decoration-line="none" text-decoration-style="solid" text-decoration-color="#000000" text-transform="none" text-orientation="mixed" white-space="normal" shape-padding="0" shape-margin="0" inline-size="0" isolation="auto" mix-blend-mode="normal" solid-color="#000000" solid-opacity="1" vector-effect="none"/><path id="path974" d="m372.27148 92.183594-9.61914 23.296876c-.004.01-.008.0195-.0117.0293-.90928 2.24247-1.57259 2.59639-2.5 2.91992-.9274.32353-2.61942.35682-4.83203-.11133-2.70153-.571-5.35448 1.15596-5.92578 3.85742-.5711 2.70091 1.1548 5.35357 3.85547 5.92578 3.11608.65931 6.61291 1.01995 10.19727-.23047 3.58435-1.25041 6.75683-4.37194 8.47265-8.60351l9.60545-23.26758c1.05362-2.552159-.16091-5.475245-2.71289-6.529297-2.59958-1.025879-5.61992.643565-6.5293 2.712891z" fill="#3e9855" font-variant-ligatures="normal" font-variant-position="normal" font-variant-caps="normal" font-variant-numeric="normal" font-variant-alternates="normal" font-variant-east-asian="normal" font-feature-settings="normal" font-variation-settings="normal" text-indent="0" text-align="start" text-decoration-line="none" text-decoration-style="solid" text-decoration-color="#000000" text-transform="none" text-orientation="mixed" white-space="normal" shape-padding="0" shape-margin="0" inline-size="0" isolation="auto" mix-blend-mode="normal" solid-color="#000000" solid-opacity="1" vector-effect="none"/><path id="path978" d="m402.36133-10.535156c-6.81868.0583-13.29091 4.1220853-16.05664 10.79882788l-28.70117 69.28320312-28.69532-69.28515625c-.0137-.0315421-.028-.0627987-.043-.09375-4.09622-8.83822335-14.0459-12.93322575-22.80468-9.38476565-.006.00193-.0117.00388-.0176.00586-8.90321 3.6867495-13.16069 13.9645154-9.47266 22.8671879l44.86328 108.320309h.002c2.94366 7.1025 9.60748 10.80078 16.16797 10.80078s13.22235-3.69828 16.16601-10.80078h.002l44.8711-108.316403c3.6883-8.9020505-.56838-19.1795523-9.4707-22.8671876-2.22552-.9220744-4.53766-1.3475584-6.81055-1.3281244zm.0156 4.9843748c1.62418-.00931 3.27948.3013602 4.88086.9648437 6.40572 2.6534566 9.41761 9.9265176 6.76367 16.3320315l-44.87107 108.316406h.002c-2.17226 5.24127-6.80888 7.71484-11.54882 7.71484-4.73995 0-9.37852-2.47357-11.55079-7.71484h.002l-44.86337-108.320312c-2.65261-6.4032209.35712-13.6724753 6.75781-16.3281255 6.33515-2.5608635 13.29706.2290152 16.37109 6.8417969l30.97266 74.7832026c.85169 2.05991 3.7694 2.05991 4.62109 0l31.01172-74.8613276c1.9901-4.8042845 6.57864-7.7005982 11.45117-7.7285156z" font-variant-ligatures="normal" font-variant-position="normal" font-variant-caps="normal" font-variant-numeric="normal" font-variant-alternates="normal" font-variant-east-asian="normal" font-feature-settings="normal" font-variation-settings="normal" text-indent="0" text-align="start" text-decoration-line="none" text-decoration-style="solid" text-decoration-color="#000000" text-transform="none" text-orientation="mixed" white-space="normal" shape-padding="0" shape-margin="0" inline-size="0" isolation="auto" mix-blend-mode="normal" solid-color="#000000" solid-opacity="1" vector-effect="none"/><path id="path982" d="m402.89453-5.4257812c-4.67114-.035842-9.46282 2.378853-11.80273 7.71875-.007.015559-.0132.031184-.0195.046875l-4.27344 10.3339842c-.52757 1.27608.0793 2.73822 1.35547 3.265625 1.27608.52757 2.73821-.07932 3.26562-1.355469l4.25196-10.2851559.004-.00781c1.64493-3.74690793 3.9775-4.74332074 7.17969-4.71874998 1.38073.0108312 2.50879-1.09973842 2.51953-2.48046872.01-1.3799703-1.10051-2.5068347-2.48047-2.5175781z" fill="#fff" font-variant-ligatures="normal" font-variant-position="normal" font-variant-caps="normal" font-variant-numeric="normal" font-variant-alternates="normal" font-variant-east-asian="normal" font-feature-settings="normal" font-variation-settings="normal" text-indent="0" text-align="start" text-decoration-line="none" text-decoration-style="solid" text-decoration-color="#000000" text-transform="none" text-orientation="mixed" white-space="normal" shape-padding="0" shape-margin="0" inline-size="0" isolation="auto" mix-blend-mode="normal" solid-color="#000000" solid-opacity="1" vector-effect="none"/></g></g></svg>